<svg xmlns="http://www.w3.org/2000/svg" xmlns:xlink="http://www.w3.org/1999/xlink" width="20" height="19" viewBox="0 0 20 19">
  <defs>
    <path id="cancel-a" d="M9.12151794,9.79495384 L0.98629738,17.9301744 C0.760287122,18.1561847 0.760287122,18.5223385 0.98629738,18.7483488 C1.09915892,18.8614975 1.24734354,18.9177847 1.39524097,18.9177847 C1.54342559,18.9177847 1.69132302,18.8614975 1.80418456,18.7483488 L10.0005744,10.551959 L18.1969642,18.7483488 C18.3101129,18.8614975 18.4580103,18.9177847 18.6059077,18.9177847 C18.7538052,18.9177847 18.9019898,18.8614975 19.0148513,18.7483488 C19.2408616,18.5223385 19.2408616,18.1561847 19.0148513,17.9301744 L10.879918,9.79495384 L19.0203077,1.65398969 C19.246318,1.42797943 19.246318,1.06182559 19.0203077,0.835815327 C18.7942975,0.610092249 18.4281436,0.610092249 18.2024206,0.835815327 L10.0008615,9.03794871 L1.79844097,0.836102507 C1.57243072,0.610379428 1.20656405,0.610379428 0.98055379,0.836102507 C0.754543532,1.06211276 0.754543532,1.42826661 0.98055379,1.65427687 L9.12151794,9.79495384 Z"/>
  </defs>
  <use fill="#05BE50" xlink:href="#cancel-a"/>
</svg>
