<svg xmlns="http://www.w3.org/2000/svg" width="20" height="16" viewBox="0 0 20 16">
  <path fill="#FFF" fill-rule="evenodd" d="M5.83445205,14.5494591 L1.21006404,9.84604813 C0.538453294,9.1629607 0.538396566,8.06759584 1.20993656,7.38443885 C1.86687095,6.71614011 2.94118467,6.70692749 3.60948341,7.36386189 C3.61635931,7.37062086 3.62317747,7.37743832 3.62993715,7.38431352 L7.26062218,11.0770408 L7.26062218,11.0770408 L16.9416189,1.23061231 C17.5986214,0.562382802 18.6729341,0.553281478 19.3411636,1.21028393 C19.347997,1.21700253 19.3547734,1.2237789 19.361492,1.23061231 C20.0330157,1.91361116 20.033026,3.00884821 19.3615152,3.69185972 L8.686765,14.5494322 C7.9123759,15.337084 6.64609158,15.3478355 5.85843982,14.5734464 C5.85037623,14.5655186 5.84238002,14.5575225 5.83445205,14.5494591 Z"/>
</svg>
