<svg xmlns="http://www.w3.org/2000/svg" width="163" height="163" viewBox="0 0 163 163">
  <path fill="#05BE50" d="M81.5,0 C103.269414,0 123.735783,8.4775918 139.129096,23.8705859 C154.522408,39.2642168 163,59.7305859 163,81.5 C163,103.269414 154.522408,123.735783 139.129096,139.129096 C123.735783,154.522408 103.269414,163 81.5,163 C59.7302676,163 39.2638984,154.522408 23.8705859,139.129096 C8.47727344,123.735783 0,103.269414 0,81.5 C0,59.7305859 8.47727344,39.2638984 23.8705859,23.8705859 C39.2635801,8.4775918 59.7302676,0 81.5,0 Z M81.5,9.55078125 C41.8270098,9.55078125 9.55078125,41.8270098 9.55078125,81.5 C9.55078125,121.17299 41.8270098,153.449219 81.5,153.449219 C121.17299,153.449219 153.449219,121.17299 153.449219,81.5 C153.449219,41.8270098 121.17299,9.55078125 81.5,9.55078125 Z M112.916116,55.3960633 C114.765223,53.5346985 117.763826,53.5346985 119.612933,55.3957455 C121.462356,57.2574281 121.462356,60.275909 119.612933,62.1372737 L119.612933,62.1372737 L74.4457257,107.603897 C73.5213301,108.53442 72.309008,109 71.0973173,109 C69.8856266,109 68.6736202,108.534738 67.7489088,107.603897 L67.7489088,107.603897 L42.387067,82.0739301 C40.5376443,80.2122475 40.5376443,77.1937666 42.387067,75.3324018 C44.2364896,73.4710371 47.2350926,73.4710371 49.0841996,75.3324018 L49.0841996,75.3324018 L71.097633,97.4917635 Z"/>
</svg>
