<?xml version="1.0" encoding="UTF-8"?>
<svg width="16px" height="20px" viewBox="0 0 16 20" version="1.1" xmlns="http://www.w3.org/2000/svg" xmlns:xlink="http://www.w3.org/1999/xlink">
    <!-- Generator: Sketch 62 (91390) - https://sketch.com -->
    <title>ico-ubicacion</title>
    <desc>Created with Sketch.</desc>
    <defs>
        <path d="M8.99580713,-6.25001135e-08 C13.4150944,-6.25001135e-08 17.0125787,3.59748424 17.0209644,8.01677148 C17.0209644,8.51991613 16.9706499,9.02725366 16.8784068,9.52201258 C16.8742139,9.55136268 16.8574424,9.639413 16.8238994,9.79035639 C16.7023061,10.3354298 16.5220126,10.8637317 16.2872118,11.3710692 C15.4234801,13.4046122 13.5199162,16.5283019 9.35639413,19.8742139 C9.25157233,19.9580713 9.12578616,19.9999999 9,19.9999999 C8.87421384,19.9999999 8.74842767,19.9580713 8.64360587,19.8742139 C4.47589096,16.5283019 2.57651988,13.4046122 1.71278821,11.3710692 C1.47798737,10.8637317 1.29769387,10.3312369 1.17610058,9.79035639 C1.1425576,9.639413 1.12578611,9.55136268 1.12159324,9.52201258 C1.02515718,9.02725366 0.979035589,8.51991613 0.979035589,8.01677148 C0.979035589,3.59748424 4.57651989,-6.25001135e-08 8.99580713,-6.25001135e-08 Z M8.99580713,1.12788254 C5.20125784,1.12788254 2.11111107,4.21802931 2.11111107,8.0125786 C2.11111107,8.45283018 2.15303979,8.88888888 2.23689723,9.32075471 C2.23689723,9.33333333 2.2410901,9.34171907 2.2410901,9.35010482 C2.24528298,9.37106918 2.25366872,9.43396226 2.27882595,9.53039832 L2.27882595,9.53039832 C2.38784063,10.0083857 2.5429769,10.4696017 2.74423476,10.9056604 C2.74842763,10.9098533 2.74842763,10.918239 2.75262051,10.9224319 C3.5366876,12.7798742 5.25576518,15.6142558 8.99580713,18.7044026 C12.7358491,15.6142558 14.4549267,12.7798742 15.2389937,10.9224319 C15.2431866,10.918239 15.2431866,10.9098533 15.2473795,10.9056604 C15.4528302,10.4654088 15.6079665,10.0083857 15.7127883,9.53878406 L15.7127883,9.53878406 C15.7337527,9.43396226 15.7463313,9.37106918 15.7505242,9.35010482 L15.7505242,9.35010482 L15.754717,9.32494758 C15.8385745,8.89727463 15.8805032,8.45702305 15.8805032,8.0125786 C15.8805032,4.21802931 12.7903564,1.12788254 8.99580713,1.12788254 Z M8.99580713,3.01467501 C11.8008386,3.01467501 14.0859539,5.29979033 14.0859539,8.10482179 C14.0859539,10.9098533 11.8008386,13.1949686 8.99580713,13.1949686 C6.19077566,13.1949686 3.90566035,10.9098533 3.90566035,8.10482179 C3.90566035,5.29979033 6.19077566,3.01467501 8.99580713,3.01467501 Z M8.99580713,4.14675049 C6.81551361,4.14675049 5.03773582,5.92452828 5.03773582,8.10482179 C5.03773582,10.2851153 6.81132074,12.0628931 8.99580713,12.0628931 C11.1802935,12.0628931 12.9538784,10.2851153 12.9538784,8.10482179 C12.9538784,5.92452828 11.1761006,4.14675049 8.99580713,4.14675049 Z" id="path-1"></path>
    </defs>
    <g id="CONTACTO" stroke="none" stroke-width="1" fill="none" fill-rule="evenodd">
        <g id="1-Home" transform="translate(-163.000000, -241.000000)">
            <g id="BANNER" transform="translate(161.000000, 120.000000)">
                <g id="Content">
                    <g id="content">
                        <g id="ubicacion" transform="translate(1.000000, 120.000000)">
                            <g id="mail2-copy" transform="translate(0.000000, 1.000000)">
                                <mask id="mask-2" fill="white">
                                    <use xlink:href="#path-1"></use>
                                </mask>
                                <use id="ico-ubicacion" fill="#333333" fill-rule="nonzero" xlink:href="#path-1"></use>
                            </g>
                        </g>
                    </g>
                </g>
            </g>
        </g>
    </g>
</svg>