<?xml version="1.0" encoding="UTF-8"?>
<svg width="20px" height="16px" viewBox="0 0 20 16" version="1.1" xmlns="http://www.w3.org/2000/svg" xmlns:xlink="http://www.w3.org/1999/xlink">
    <!-- Generator: Sketch 62 (91390) - https://sketch.com -->
    <title>ico-mail</title>
    <desc>Created with Sketch.</desc>
    <defs>
        <path d="M17.5330579,5.38636359 C18.8801653,5.38636359 19.9752067,6.48553715 19.9710861,7.8326446 L19.9710861,7.8326446 L19.9710861,18.142562 C19.9710861,19.4896695 18.8760331,20.5847108 17.5289257,20.5847108 L17.5289257,20.5847108 L2.44214871,20.5847108 C1.09504127,20.5847108 -6.25000283e-08,19.4896695 -6.25000283e-08,18.142562 L-6.25000283e-08,18.142562 L-6.25000283e-08,7.82851236 C-6.25000283e-08,6.48140492 1.09504127,5.38636359 2.44214871,5.38636359 L2.44214871,5.38636359 Z M17.5289257,6.50619831 L2.44214871,6.50619831 C1.71074375,6.50619831 1.11570242,7.10123963 1.11570242,7.8326446 L1.11570242,7.8326446 L1.11570242,18.142562 C1.11570242,18.873967 1.71074375,19.4690083 2.44214871,19.4690083 L2.44214871,19.4690083 L17.5330579,19.4690083 C18.2644629,19.4690083 18.8595042,18.873967 18.8595042,18.142562 L18.8595042,18.142562 L18.855372,18.142562 L18.855372,7.8326446 C18.855372,7.10123963 18.2603306,6.50619831 17.5289257,6.50619831 L17.5289257,6.50619831 Z M2.44628094,7.6880165 C2.65289252,7.45661154 3.00413219,7.43595038 3.23553715,7.64256195 L3.23553715,7.64256195 L8.58264462,12.4276859 C8.61570247,12.4524793 8.64462809,12.4772727 8.67355371,12.5061983 C8.67355371,12.5103306 8.67768594,12.5144628 8.68181817,12.518595 L8.68181817,12.518595 L9.99586777,13.6921488 L16.731405,7.64669418 C16.96281,7.44008261 17.3140496,7.46074377 17.5206612,7.6880165 C17.7272728,7.91942146 17.7066116,8.27066113 17.4793389,8.4772727 L17.4793389,8.4772727 L12.5950413,12.857438 L17.5,17.5144628 C17.7231405,17.7252066 17.731405,18.0805785 17.5206612,18.303719 C17.409091,18.4194215 17.2644629,18.4772728 17.1157025,18.4772728 C16.9793389,18.4772728 16.838843,18.427686 16.731405,18.3243802 L16.731405,18.3243802 L11.7644628,13.6053719 L10.3719008,14.8533058 C10.268595,14.9483471 10.1322314,14.9979339 10,14.9979339 C9.86776859,14.9979339 9.73553719,14.9524794 9.62809917,14.857438 L9.62809917,14.857438 L8.27272726,13.6466942 L3.27685946,18.320248 C3.16942144,18.4194215 3.03305781,18.4690083 2.89669417,18.4690083 C2.74793384,18.4690083 2.59917351,18.4070248 2.48760326,18.2913223 C2.27685946,18.0640496 2.28925615,17.7128099 2.51239665,17.5020661 L2.51239665,17.5020661 L7.43388428,12.8946281 L2.49173549,8.4772727 C2.26033053,8.27066113 2.23966937,7.91942146 2.44628094,7.6880165 Z" id="path-1"></path>
    </defs>
    <g id="CONTACTO" stroke="none" stroke-width="1" fill="none" fill-rule="evenodd">
        <g id="1-Home" transform="translate(-161.000000, -205.000000)">
            <g id="BANNER" transform="translate(161.000000, 120.000000)">
                <g id="Content">
                    <g id="content">
                        <g id="mail" transform="translate(0.000000, 80.000000)">
                            <mask id="mask-2" fill="white">
                                <use xlink:href="#path-1"></use>
                            </mask>
                            <use id="ico-mail" fill="#333333" fill-rule="nonzero" xlink:href="#path-1"></use>
                        </g>
                    </g>
                </g>
            </g>
        </g>
    </g>
</svg>