<svg xmlns="http://www.w3.org/2000/svg" width="78" height="76" viewBox="0 0 78 76">
  <path fill="#05BE50" d="M38.4325929,0 C39.1410337,0 39.7136793,0.562138724 39.7136793,1.25758104 L39.7136793,1.25758104 L39.7136793,3.80418264 C57.7680304,4.45435204 72.3275776,18.7467605 72.9898993,36.4698501 L72.9898993,36.4698501 L75.5840993,36.4698501 C76.2925401,36.4698501 76.8651858,37.0319888 76.8651858,37.7274312 C76.8651858,38.4228735 76.2925401,38.9850122 75.5840993,38.9850122 L75.5840993,38.9850122 L72.9898993,38.9850122 C72.3275776,56.7081018 57.7680304,71.0005103 39.7136793,71.6506797 L39.7136793,71.6506797 L39.7136793,74.1972813 C39.7136793,74.8927236 39.1410337,75.4548623 38.4325929,75.4548623 C37.7241521,75.4548623 37.1515064,74.8927236 37.1515064,74.1972813 L37.1515064,74.1972813 L37.1515064,71.6506797 C19.0971554,71.0005103 4.53760813,56.7081018 3.87528645,38.9850122 L3.87528645,38.9850122 L1.28108643,38.9850122 C0.572645634,38.9850122 0,38.4228735 0,37.7274312 C0,37.0319888 0.572645634,36.4698501 1.28108643,36.4698501 L1.28108643,36.4698501 L3.87528645,36.4698501 C4.53760813,18.7467605 19.0971554,4.45435204 37.1515064,3.80418264 L37.1515064,3.80418264 L37.1515064,1.25758104 C37.1515064,0.562138724 37.7241521,0 38.4325929,0 Z M39.7136793,6.31934472 L39.7136793,8.80306727 C39.7136793,9.49850959 39.1410337,10.0606483 38.4325929,10.0606483 C37.7241521,10.0606483 37.1515064,9.49850959 37.1515064,8.80306727 L37.1515064,8.80306727 L37.1515064,6.31934472 C20.5101937,6.96699895 7.09721882,20.1338724 6.43745931,36.4698501 L6.43745931,36.4698501 L8.967605,36.4698501 C9.6760458,36.4698501 10.2486914,37.0319888 10.2486914,37.7274312 C10.2486914,38.4228735 9.6760458,38.9850122 8.967605,38.9850122 L8.967605,38.9850122 L6.43745931,38.9850122 C7.09721882,55.3209899 20.5101937,68.4878634 37.1515064,69.1355176 L37.1515064,69.1355176 L37.1515064,66.6517951 C37.1515064,65.9563527 37.7241521,65.394214 38.4325929,65.394214 C39.1410337,65.394214 39.7136793,65.9563527 39.7136793,66.6517951 L39.7136793,66.6517951 L39.7136793,69.1355176 C56.354992,68.4878634 69.7679669,55.3209899 70.4277264,38.9850122 L70.4277264,38.9850122 L67.8975807,38.9850122 C67.18914,38.9850122 66.6164943,38.4228735 66.6164943,37.7274312 C66.6164943,37.0319888 67.18914,36.4698501 67.8975807,36.4698501 L67.8975807,36.4698501 L70.4277264,36.4698501 C69.7679669,20.1338724 56.354992,6.96699895 39.7136793,6.31934472 L39.7136793,6.31934472 Z M37.9521855,20.7500871 C38.6674382,20.7500871 39.24559,21.317631 39.24559,22.0197603 L39.24559,22.0197603 L39.24559,28.4697 C43.2021146,29.0296258 46.3321537,32.1022349 46.9025451,35.9861651 L46.9025451,35.9861651 L53.4730403,35.9861651 C54.188293,35.9861651 54.7664448,36.553709 54.7664448,37.2558383 C54.7664448,37.9579675 54.188293,38.5255114 53.4730403,38.5255114 L53.4730403,38.5255114 L46.9025451,38.5255114 C46.3321537,42.408172 43.2021146,45.4820507 39.24559,46.0419766 L39.24559,46.0419766 L39.24559,52.4919162 C39.24559,53.1940455 38.6674382,53.7615894 37.9521855,53.7615894 C37.2369327,53.7615894 36.6587809,53.1940455 36.6587809,52.4919162 L36.6587809,52.4919162 L36.6587809,46.0419766 C32.7022563,45.4820507 29.5722173,42.4094416 29.0018259,38.5255114 L29.0018259,38.5255114 L22.4313306,38.5255114 C21.7160779,38.5255114 21.1379261,37.9579675 21.1379261,37.2558383 C21.1379261,36.553709 21.7160779,35.9861651 22.4313306,35.9861651 L22.4313306,35.9861651 L29.0018259,35.9861651 C29.5722173,32.1035046 32.7022563,29.0296258 36.6587809,28.4697 L36.6587809,28.4697 L36.6587809,22.0197603 C36.6587809,21.317631 37.2369327,20.7500871 37.9521855,20.7500871 Z M37.9521855,30.9074725 C34.3862691,30.9074725 31.4851626,33.7553494 31.4851626,37.2558383 C31.4851626,40.7563272 34.3862691,43.6042041 37.9521855,43.6042041 C41.5181019,43.6042041 44.4192083,40.7563272 44.4192083,37.2558383 C44.4192083,33.7553494 41.5181019,30.9074725 37.9521855,30.9074725 Z" transform="translate(.743 .372)"/>
</svg>
