<svg xmlns="http://www.w3.org/2000/svg" width="75" height="74" viewBox="0 0 75 74">
  <path fill="#05BE50" d="M72.2393776,0.287893691 C72.6773621,-0.114289941 73.3654993,-0.0924197858 73.7759467,0.336746505 C74.1863942,0.765912795 74.1640747,1.44005323 73.7260901,1.84237887 L73.7260901,1.84237887 L47.6386184,25.7984355 L67.8331547,45.3228035 L72.2403921,41.2867658 C72.6791013,40.8851502 73.3669486,40.9078724 73.7771062,41.3377488 C74.1871188,41.7676251 74.1639297,42.4417656 73.7255104,42.8435232 L73.7255104,42.8435232 L68.5556407,47.5778437 C68.135193,47.9627016 67.4596649,47.9538967 67.0497972,47.5578197 L67.0497972,47.5578197 L64.7127685,45.2983771 L62.2142856,47.8563331 L62.9592361,48.3048133 C65.1043748,49.5962886 65.7771492,52.3568986 64.4591375,54.4588477 C63.5980964,55.8319811 62.0967458,56.5894837 60.5613361,56.5894837 C60.2094411,56.5894837 59.855952,56.5470215 59.5078253,56.4657895 C59.565943,57.3775193 59.3386896,58.2831426 58.8405583,59.0775689 C58.0144459,60.3951747 56.5207766,61.2110451 54.9418873,61.2110451 C54.586514,61.2110451 54.2338944,61.1675888 53.889536,61.0866408 C53.9472189,61.9976606 53.7198206,62.9027158 53.2221241,63.696574 C52.3958667,65.0141799 50.9023424,65.8300503 49.323453,65.8300503 C48.9669203,65.8300503 48.6135761,65.78631 48.268348,65.7049359 C48.3240019,66.5916713 48.1131258,67.5025491 47.6035449,68.3152952 C47.3471602,68.7241535 47.0248314,69.0926798 46.6500372,69.4017022 C45.1631797,70.627425 42.9770253,70.7808001 41.3227714,69.784856 L41.3227714,69.784856 L40.7121728,69.4173238 L39.9705557,70.5949038 C39.7134464,71.003336 39.3903929,71.3712943 39.015019,71.6796067 C37.5258426,72.9026312 35.3391085,73.0518879 33.6870285,72.0531035 C32.5503268,71.3658978 31.7753753,70.2127441 31.5718908,68.9204168 C30.3015617,69.3221744 28.9023881,69.1604204 27.7658313,68.4732147 C26.6288397,67.785725 25.8537433,66.6321453 25.6505486,65.3392499 C24.3842777,65.7408655 22.9778575,65.5784015 21.844779,64.893326 C20.7077874,64.2059782 19.9324012,63.0522565 19.7293514,61.7593611 C18.4632254,62.1609767 17.0566603,61.9985127 15.9235818,61.3134372 C13.780907,60.0179855 13.1134951,57.2560974 14.4354199,55.1567045 L14.4354199,55.1567045 L14.9019561,54.4156755 L10.6718255,52.0928946 L9.0574279,56.135465 C8.84655183,56.663757 8.22827188,56.9411103 7.68216807,56.7515217 L7.68216807,56.7515217 L0.72456207,54.3369997 C0.158602577,54.1405944 -0.137783381,53.5317804 0.0626575869,52.9772157 C0.263098555,52.4225091 0.884277144,52.1323745 1.45038157,52.3286378 L1.45038157,52.3286378 L7.41607291,54.3990598 L17.0760811,30.2099582 L0.683836176,23.7849611 C0.126282739,23.5665436 -0.144885049,22.9465105 0.0781653119,22.4003247 C0.301070741,21.8539968 0.933554026,21.5880046 1.4912524,21.8068482 L1.4912524,21.8068482 L18.8854123,28.624372 C19.4399222,28.8415114 19.7116697,29.456432 19.4941268,30.0014817 L19.4941268,30.0014817 L19.0541132,31.1036523 L24.4957304,32.044637 C24.524282,32.0496075 24.5518191,32.0564242 24.5793562,32.0633829 L24.5793562,32.0633829 L34.0395032,27.8415909 C34.2076243,27.7654714 34.3990795,27.7343703 34.583288,27.7497078 L34.583288,27.7497078 L46.5229318,28.7571551 L47.0930944,28.2637985 L45.3068074,26.5370503 C44.8738955,26.118393 44.8831711,25.4088911 45.3269529,25.001453 L45.3269529,25.001453 Z M39.7363456,62.3596543 C38.6229779,61.7146267 37.1645271,62.0680996 36.4849409,63.1471219 L36.4849409,63.1471219 L34.0493585,67.015015 C33.3642649,68.1029842 33.7202179,69.5697048 34.8288029,70.2400108 C35.9394169,70.911311 37.4359848,70.5626666 38.1202088,69.4762596 L38.1202088,69.4762596 L40.5147754,65.6736929 C41.2065359,64.5749306 40.8885551,63.0269781 39.7363456,62.3596543 Z M48.6441567,29.7636083 L47.6125307,30.6561662 C47.4129593,30.8285712 47.1568645,30.9227265 46.8930882,30.9227265 C46.8620727,30.9227265 46.8309124,30.9214483 46.799752,30.9187501 L46.799752,30.9187501 L34.6808273,29.8961073 L24.4929767,34.4426853 C23.2927947,34.9783621 22.7611841,36.3708093 23.3077227,37.5468272 C23.8544063,38.7228451 25.2757545,39.2438944 26.4756466,38.7082177 L26.4756466,38.7082177 L32.8423648,35.8669437 C33.3815118,35.6260879 34.0367494,35.8666597 34.2822643,36.3948097 C34.527924,36.9231018 34.2826991,37.565147 33.743552,37.8057187 L33.743552,37.8057187 L27.3769787,40.6471347 C26.7652207,40.9200856 26.1233168,41.0493184 25.4912684,41.0493184 C23.7558525,41.0494604 22.0940621,40.0756704 21.3291109,38.4300122 C20.5899577,36.8393135 20.8848943,35.0418424 21.9339122,33.7651366 L21.9339122,33.7651366 L18.2456825,33.1273517 L11.4718502,50.0897872 L16.0456146,52.6003106 L20.5254629,45.4859775 C21.8226044,43.4262066 24.607473,42.7517821 26.7334806,43.9831855 C28.4459972,44.9752952 29.2712401,47.0056693 28.8229654,48.8927513 C29.710529,48.8342415 30.6220064,49.0253923 31.4368141,49.4971628 C33.1493308,50.4892726 33.9745736,52.5196467 33.5262989,54.4067286 C34.4138625,54.3480768 35.3253399,54.5392277 36.1401477,55.0111402 C37.1843828,55.6159778 37.9226665,56.5961584 38.2186176,57.7711821 C38.3971739,58.479974 38.3963043,59.2192988 38.2296325,59.920848 C39.1171961,59.8621962 40.0286735,60.053347 40.8434812,60.5251175 C41.8877163,61.1299551 42.626,62.1101357 42.9219512,63.2851595 C43.2219604,64.4758048 43.0192005,65.7539308 42.3657021,66.791769 L42.3657021,66.791769 L41.8545269,67.603663 L42.4615022,67.9692071 C43.5731307,68.638377 45.0692638,68.2870344 45.7513138,67.1993492 C46.441625,66.0983147 46.0892953,64.6523282 44.9657823,63.9757735 L44.9657823,63.9757735 L43.4557357,63.0666 C42.9442707,62.7587136 42.7844107,62.102609 43.0986233,61.6014416 C43.3931251,61.1316593 44.0001004,60.9645088 44.4964925,61.1994 C44.5296819,61.2150215 48.0799364,63.3504859 48.0799364,63.3504859 C49.1915649,64.0197979 50.687698,63.6681712 51.3697481,62.5806281 C52.0528126,61.4912387 51.693961,60.0255123 50.5840717,59.3570524 L50.5840717,59.3570524 L46.5471355,56.9264829 C46.0356704,56.6185966 45.8758104,55.9624919 46.190023,55.4613245 C46.5042356,54.9601571 47.1736766,54.8033737 47.6852866,55.111402 L47.6852866,55.111402 L53.6982257,58.7317648 C54.8098542,59.4009347 56.3059874,59.0495921 56.9880374,57.9619069 C57.6711019,56.8726596 57.3123952,55.4066491 56.202361,54.7383313 L56.202361,54.7383313 L49.5673736,50.7434776 C49.0559086,50.4355913 48.8960486,49.7794866 49.2102612,49.2783192 C49.5244737,48.7771519 50.1940596,48.6202264 50.7055247,48.9283968 L50.7055247,48.9283968 L59.3163701,54.1130437 C60.440028,54.7894563 61.9158706,54.4440783 62.6063267,53.3431858 C63.2966379,52.2421513 62.9441632,50.7961648 61.8206503,50.1196101 L61.8206503,50.1196101 L53.7918518,45.2855958 C53.2921262,44.9848102 53.1276284,44.3101017 53.4347393,43.8204374 C53.7417053,43.3307732 54.4302773,43.1695873 54.9300029,43.4705149 L54.9300029,43.4705149 L60.3188648,46.7151087 L63.1643149,43.8015496 L48.6441567,29.7636083 Z M35.0330121,56.8455349 C33.9196444,56.2009334 32.4611936,56.5538382 31.7816074,57.6331445 L31.7816074,57.6331445 L28.1281613,63.4351263 C27.4429228,64.5230955 27.7990207,65.989674 28.9076057,66.6601221 C29.4512456,66.9887424 30.0928596,67.0905665 30.7147629,66.9461382 C31.3362313,66.801852 31.863494,66.4289233 32.1991565,65.8962288 L32.1991565,65.8962288 L35.8114419,60.1595735 C36.5032024,59.0608112 36.1852215,57.5130007 35.0330121,56.8455349 Z M30.3293887,51.3316996 C29.215876,50.6870981 27.7575702,51.0401449 27.077984,52.1193092 L27.077984,52.1193092 L22.2068192,59.8552375 C21.5215806,60.9433487 21.8776786,62.4097852 22.9864085,63.0802333 C24.108617,63.7586341 25.5851843,63.4159544 26.2775245,62.31634 L26.2775245,62.31634 L31.1076736,54.6457382 C31.799579,53.5469759 31.4815981,51.9991654 30.3293887,51.3316996 Z M25.6262001,45.8178643 C24.5126874,45.1732627 23.0543816,45.5261675 22.3747954,46.6054739 L22.3747954,46.6054739 L16.285622,56.2753487 C15.5932818,57.3751051 15.9428578,58.8218017 17.0652112,59.5003445 C18.1875647,60.1786034 19.6639871,59.8360656 20.3566172,58.7364513 L20.3566172,58.7364513 L26.4046299,49.1319028 C27.0963904,48.0331405 26.7784095,46.48533 25.6262001,45.8178643 Z M36.3523366,33.8925573 C36.4549037,33.2643255 37.0261017,32.8320845 37.6077009,32.9431876 L37.6077009,32.9431876 L40.7516012,33.5423953 C40.8936061,33.566426 41.0343109,33.6215094 41.1566692,33.7028082 L41.1566692,33.7028082 L51.1985725,40.3677453 C51.7141531,40.7102611 51.869015,41.485174 51.5260651,42.0244609 C51.2063734,42.5269215 50.5457542,42.6821849 50.0641219,42.3624515 L50.0641219,42.3624515 L40.1978829,35.814079 L37.2310916,35.2485767 C36.6494924,35.1377857 36.2497694,34.5207891 36.3523366,33.8925573 Z" transform="translate(.14 .744)"/>
</svg>
