<svg xmlns="http://www.w3.org/2000/svg" width="79" height="78" viewBox="0 0 79 78">
  <path fill="#05BE50" d="M39.1313673,0 C43.6642771,0 47.3571181,3.53076851 47.5116277,7.94355067 C58.5280623,10.8547577 67.2044906,19.3717573 70.1716435,30.186887 C74.6660434,30.3386311 78.2627346,33.9636883 78.2627346,38.4133845 C78.2627346,42.8630806 74.6660434,46.4881378 70.170844,46.6398793 C67.2044906,57.4550116 58.5280623,65.9720112 47.5106492,68.8843915 C47.35664,73.2964575 43.6639836,76.8267689 39.1313673,76.8267689 C34.598751,76.8267689 30.9060946,73.2964575 30.7511369,68.8840752 C19.7341464,65.971495 11.058154,57.4546838 8.09109107,46.6398819 C3.59661346,46.4880594 0,42.8630325 0,38.4133845 C0,33.9637364 3.59661346,30.3387095 8.09174487,30.1868945 C11.058154,19.3720851 19.7341464,10.855274 30.7510837,7.94264224 C30.9056165,3.53076851 34.5984575,0 39.1313673,0 Z M47.1353952,10.6877893 L47.0736352,10.8785835 C45.9507769,14.1260493 42.8190707,16.4628791 39.1313673,16.4628791 C35.3721967,16.4628791 32.1907825,14.0345969 31.1260909,10.6887617 C21.353588,13.4013973 13.6524846,20.9609727 10.8878293,30.5552602 C14.297079,31.6003504 16.770586,34.7233082 16.770586,38.4133845 C16.770586,42.1034608 14.297079,45.2264185 10.88888,46.2716771 C13.6524846,55.8657962 21.353588,63.4253716 31.1273393,66.1389796 C32.1907825,62.7921721 35.3721967,60.3638899 39.1313673,60.3638899 C42.8905379,60.3638899 46.071952,62.7921721 47.1366437,66.1380072 C56.9091465,63.4253716 64.61025,55.8657962 67.3749053,46.2715087 C63.965737,45.2265213 61.4921486,42.1035215 61.4921486,38.4133845 C61.4921486,34.7232474 63.965737,31.6002476 67.3740229,30.5550402 C64.61025,20.9609727 56.9091465,13.4013973 47.1353952,10.6877893 Z" transform="translate(.346 .372)"/>
</svg>
