<svg xmlns="http://www.w3.org/2000/svg" width="79" height="78" viewBox="0 0 79 78">
  <path fill="#05BE50" d="M18.1681348,52.1324503 L18.1681348,76.8267689 L15.3730372,76.8267689 L15.3730372,52.1324503 L18.1681348,52.1324503 Z M40.7638664,3.89919304e-14 C42.5508047,3.89919304e-14 43.9989893,1.43391671 43.9989893,3.20151207 L43.9989893,3.20151207 L43.9989893,3.84131342 L63.4102337,3.84131342 L63.4102337,8.96323165 L78.2627346,8.96323165 L75.1572393,16.6458584 L78.2627346,24.3284852 L56.9399877,24.3284852 L56.9399877,19.207068 L43.9989893,19.207068 L43.9989893,23.0483814 L46.5874928,23.0483814 L46.5874928,26.8896948 C46.5814165,28.8947732 45.622374,30.7791059 43.9989893,31.9780447 L43.9989893,31.9780447 L43.9989893,76.8267689 L37.5287434,76.8267689 L37.5287434,33.2917167 L25.8819967,33.2917167 L25.8819967,76.8267689 L23.2934932,76.8267689 L23.2934932,30.7310081 L40.1167404,30.7310081 C42.2606614,30.7310081 43.9989893,29.0115106 43.9989893,26.8896948 L43.9989893,26.8896948 L43.9989893,25.60909 L9.05874943,25.60909 C5.48639191,25.6135991 2.59255435,28.4774243 2.58799716,32.0111119 L2.58799716,32.0111119 L2.58799716,44.8156569 C2.58799716,46.9379739 4.32632508,48.6569703 6.47024594,48.6569703 L6.47024594,48.6569703 L7.76449781,48.6569703 L7.76449781,30.7310081 L10.3524948,30.7310081 L10.3524948,76.8267689 L7.76449781,76.8267689 L7.76449781,51.2181799 L6.47024594,51.2181799 C2.89839475,51.2141717 0.00455721797,48.3503466 0,44.8156569 L0,44.8156569 L0,32.0111119 C0.00556994748,27.0640495 4.05795526,23.0538926 9.05874943,23.0483814 L9.05874943,23.0483814 L37.5287434,23.0483814 L37.5287434,3.20151207 C37.5287434,1.43391671 38.9769281,3.89919304e-14 40.7638664,3.89919304e-14 Z M41.4109923,33.1644579 C40.9851449,33.2501322 40.5517022,33.2922177 40.1167404,33.2917167 L40.1167404,33.2917167 L40.1167404,74.2660603 L41.4109923,74.2660603 Z M40.7638664,2.56120961 C40.4063775,2.56120961 40.1167404,2.84829364 40.1167404,3.20151207 L40.1167404,3.20151207 L40.1167404,23.0483814 L41.4109923,23.0483814 L41.4109923,3.20151207 C41.4109923,2.84829364 41.1213552,2.56120961 40.7638664,2.56120961 Z M74.4397296,11.5244413 L63.4102337,11.5244413 L63.4102337,19.207068 L59.5279848,19.207068 L59.5279848,21.7677766 L74.4397296,21.7677766 L72.3692306,16.6458584 L74.4397296,11.5244413 Z M17.4693604,5.48762635 C21.7141392,5.48762635 25.155879,8.8662169 25.155879,13.0331126 C25.155879,17.2009924 21.7141392,20.5785988 17.4693604,20.5785988 C13.2255842,20.5751543 9.78735338,17.1990241 9.78284182,13.0331126 C9.78284182,8.8662169 13.2245816,5.48762635 17.4693604,5.48762635 Z M17.4693604,8.00311648 C14.6391736,8.00311648 12.3448476,10.2553462 12.3448476,13.0331126 C12.3448476,15.8118631 14.6391736,18.0636007 17.4693604,18.0636007 C20.2990458,18.0636007 22.5938732,15.8118631 22.5938732,13.0331126 C22.5938732,10.2553462 20.2990458,8.00311648 17.4693604,8.00311648 Z M60.8222366,6.40252303 L43.9989893,6.40252303 L43.9989893,16.6458584 L60.8222366,16.6458584 L60.8222366,6.40252303 Z" transform="translate(.257 .543)"/>
</svg>
