<svg xmlns="http://www.w3.org/2000/svg" width="78" height="76" viewBox="0 0 78 76">
  <path fill="#05BE50" d="M58.2687698,0 C63.7373559,0 68.1868583,4.36786292 68.1868583,9.73611127 C68.1868583,13.3311704 66.1871237,16.4686322 63.2278141,18.1554135 L63.2278141,18.1554135 L63.2278141,19.4722225 L64.6795743,19.4722225 C67.2719147,19.4722225 69.7092849,20.4628719 71.5428915,22.2628354 C73.3764981,24.060365 74.3856636,26.4530143 74.3856636,28.9990074 L74.3856636,28.9990074 L74.3856636,36.5104173 L75.6254247,36.5104173 C76.3097728,36.5104173 76.8651858,37.0544225 76.8651858,37.7274312 L76.8651858,37.7274312 L76.8651858,42.5954868 C76.8651858,43.2684955 76.3097728,43.8125007 75.6254247,43.8125007 L75.6254247,43.8125007 L74.3856636,43.8125007 L74.3856636,71.8038206 C74.3856636,72.4768293 73.8302507,73.0208345 73.1459026,73.0208345 L73.1459026,73.0208345 L54.5494867,73.0208345 L54.5494867,74.2378484 C54.5494867,74.9108571 53.9940737,75.4548623 53.3097256,75.4548623 L53.3097256,75.4548623 L1.23976106,75.4548623 C0.555412955,75.4548623 0,74.9108571 0,74.2378484 L0,74.2378484 L0,70.5868067 C0,66.6534177 2.39273885,63.265251 5.82067818,61.7305965 C4.54248453,60.6145947 3.71928318,59.0069193 3.71928318,57.1996537 C3.71928318,53.8443463 6.50006724,51.1145842 9.91808848,51.1145842 C13.3361097,51.1145842 16.1168938,53.8443463 16.1168938,57.1996537 C16.1168938,59.0069193 15.2936924,60.6145947 14.0154988,61.7305965 C15.9569646,62.6007614 17.5674142,64.0611781 18.5964159,65.8842649 C19.6254176,64.0599611 21.2358672,62.5995444 23.177333,61.7305965 C21.8991394,60.6145947 21.075938,59.0069193 21.075938,57.1996537 C21.075938,53.8443463 23.8567221,51.1145842 27.2747433,51.1145842 L27.2747433,51.1145842 L27.2747433,43.8125007 L26.0349823,43.8125007 C25.3506342,43.8125007 24.7952212,43.2684955 24.7952212,42.5954868 L24.7952212,42.5954868 L24.7952212,37.7274312 C24.7952212,37.0544225 25.3506342,36.5104173 26.0349823,36.5104173 L26.0349823,36.5104173 L27.2747433,36.5104173 L27.2747433,32.8593755 C27.2747433,32.1863668 27.8301563,31.6423616 28.5145044,31.6423616 L28.5145044,31.6423616 L32.2337876,31.6423616 L32.2337876,31.2249258 C32.2337876,27.0432661 33.6917466,23.0818858 36.3683907,19.8969604 C36.1117602,19.4004187 35.9530708,18.8491114 35.9530708,18.2552086 C35.9530708,16.2422676 37.6217891,14.6041669 39.6723539,14.6041669 C41.7229187,14.6041669 43.3916371,16.2422676 43.3916371,18.2552086 C43.3916371,20.2681496 41.7229187,21.9062504 39.6723539,21.9062504 C39.1367772,21.9062504 38.6297149,21.789417 38.1685238,21.5886097 C35.9332346,24.3135039 34.7133097,27.6761133 34.7133097,31.2249258 L34.7133097,31.2249258 L34.7133097,31.6423616 L38.4325929,31.6423616 C39.116941,31.6423616 39.6723539,32.1863668 39.6723539,32.8593755 L39.6723539,32.8593755 L39.6723539,36.5104173 L42.1518761,36.5104173 L42.1518761,28.9990074 C42.1518761,26.4530143 43.1610416,24.061582 44.9946482,22.2628354 C46.8282548,20.4628719 49.265625,19.4722225 51.8579654,19.4722225 L51.8579654,19.4722225 L53.3097256,19.4722225 L53.3097256,18.1554135 C50.350416,16.4686322 48.3506814,13.3299533 48.3506814,9.73611127 C48.3506814,4.36786292 52.8001838,0 58.2687698,0 Z M9.91808848,63.2847232 C5.81571913,63.2847232 2.47952212,66.5597077 2.47952212,70.5868067 L2.47952212,70.5868067 L2.47952212,73.0208345 L17.3566548,73.0208345 L17.3566548,70.5868067 C17.3566548,66.5597077 14.0204578,63.2847232 9.91808848,63.2847232 Z M27.2747433,63.2847232 C23.172374,63.2847232 19.836177,66.5597077 19.836177,70.5868067 L19.836177,70.5868067 L19.836177,73.0208345 L34.7133097,73.0208345 L34.7133097,70.5868067 C34.7133097,66.5597077 31.3771127,63.2847232 27.2747433,63.2847232 Z M44.6313982,63.2847232 C40.5290288,63.2847232 37.1928318,66.5597077 37.1928318,70.5868067 L37.1928318,70.5868067 L37.1928318,73.0208345 L52.0699645,73.0208345 L52.0699645,70.5868067 C52.0699645,66.5597077 48.7337675,63.2847232 44.6313982,63.2847232 Z M71.9061415,43.8125007 L29.7542655,43.8125007 L29.7542655,51.6305981 C31.9399642,52.5725668 33.4735486,54.7108603 33.4735486,57.1996537 C33.4735486,59.0069193 32.6503473,60.6145947 31.3721536,61.7305965 C33.3136195,62.6007614 34.9240691,64.0611781 35.9530708,65.8842649 C36.9820724,64.0599611 38.5925221,62.5995444 40.5339879,61.7305965 C39.2557942,60.6145947 38.4325929,59.0069193 38.4325929,57.1996537 C38.4325929,53.8443463 41.2133769,51.1145842 44.6313982,51.1145842 C48.0494194,51.1145842 50.8302035,53.8443463 50.8302035,57.1996537 C50.8302035,59.0069193 50.0070021,60.6145947 48.7288085,61.7305965 C52.1567478,63.265251 54.5494867,66.6534177 54.5494867,70.5868067 L54.5494867,70.5868067 L71.9061415,70.5868067 L71.9061415,43.8125007 Z M27.2747433,53.548612 C25.2241785,53.548612 23.5554601,55.1867127 23.5554601,57.1996537 C23.5554601,59.2125947 25.2241785,60.8506954 27.2747433,60.8506954 C29.3253081,60.8506954 30.9940265,59.2125947 30.9940265,57.1996537 C30.9940265,55.1867127 29.3253081,53.548612 27.2747433,53.548612 Z M9.91808848,53.548612 C7.86752369,53.548612 6.1988053,55.1867127 6.1988053,57.1996537 C6.1988053,59.2125947 7.86752369,60.8506954 9.91808848,60.8506954 C11.9686533,60.8506954 13.6373717,59.2125947 13.6373717,57.1996537 C13.6373717,55.1867127 11.9686533,53.548612 9.91808848,53.548612 Z M44.6313982,53.548612 C42.5808334,53.548612 40.912115,55.1867127 40.912115,57.1996537 C40.912115,59.2125947 42.5808334,60.8506954 44.6313982,60.8506954 C46.681963,60.8506954 48.3506814,59.2125947 48.3506814,57.1996537 C48.3506814,55.1867127 46.681963,53.548612 44.6313982,53.548612 Z M74.3856636,38.9444451 L27.2747433,38.9444451 L27.2747433,41.3784729 L74.3856636,41.3784729 L74.3856636,38.9444451 Z M66.5206195,22.1460021 L64.4043473,28.3771133 C64.2902893,28.7105751 64.0348985,28.9807522 63.7026426,29.1158407 C63.550152,29.1779085 63.388983,29.2083338 63.2278141,29.2083338 C63.0381306,29.2083338 62.8472074,29.1657383 62.6736409,29.0793303 L62.6736409,29.0793303 L59.5085309,27.5264206 L59.5085309,36.5104173 L66.9470973,36.5104173 L66.9470973,31.6423616 L69.4266194,31.6423616 L69.4266194,36.5104173 L71.9061415,36.5104173 L71.9061415,28.9990074 C71.9061415,27.1041168 71.1548463,25.3236254 69.7911091,23.9849101 C68.8712064,23.0818858 67.7455034,22.4612087 66.5206195,22.1460021 L66.5206195,22.1460021 Z M50.01816,22.1447851 C48.7932761,22.4599917 47.667573,23.0818858 46.7476703,23.9836931 C45.3826934,25.3224084 44.6313982,27.1041168 44.6313982,28.9990074 L44.6313982,28.9990074 L44.6313982,36.5104173 L47.1109203,36.5104173 L47.1109203,31.6423616 L49.5904424,31.6423616 L49.5904424,36.5104173 L57.0290088,36.5104173 L57.0290088,27.5264206 L53.8638988,29.0805473 C53.6903322,29.1657383 53.499409,29.2083338 53.3097256,29.2083338 C53.1485567,29.2083338 52.9873877,29.1779085 52.8361369,29.1146237 C52.5038809,28.9795352 52.2484901,28.7093581 52.1344321,28.3758963 L52.1344321,28.3758963 Z M37.1928318,34.0763894 L29.7542655,34.0763894 L29.7542655,36.5104173 L37.1928318,36.5104173 L37.1928318,34.0763894 Z M53.9296061,21.9062504 L52.5509918,21.9062504 L54.0337461,26.2753303 L56.3855728,25.1203841 L53.9296061,21.9062504 Z M63.9877876,21.9062504 L62.6079336,21.9062504 L60.1532067,25.1203841 L62.5050334,26.2753303 L63.9877876,21.9062504 Z M23.4893449,2.74381318 C25.5341542,2.74381318 27.1981888,4.38522319 27.1981888,6.40223074 L27.1981888,6.40223074 L27.1981888,8.33631416 L31.7810836,12.8568988 C32.2644696,13.3337126 32.2644696,14.1044192 31.7810836,14.5812329 L31.7810836,14.5812329 L27.1981888,19.1018176 L27.1981888,21.035901 C27.1981888,23.0529086 25.5341542,24.6943186 23.4893449,24.6943186 L23.4893449,24.6943186 L3.70884393,24.6943186 C1.66403464,24.6943186 0,23.0529086 0,21.035901 L0,21.035901 L0,6.40223074 C0,4.38522319 1.66403464,2.74381318 3.70884393,2.74381318 L3.70884393,2.74381318 Z M60.748292,19.1521479 C59.9536051,19.3541722 59.1266845,19.4722225 58.2687698,19.4722225 C57.4108552,19.4722225 56.5839346,19.3541722 55.7892477,19.1521479 L55.7892477,19.1521479 L55.7892477,20.2839708 L58.2687698,23.5285299 L60.748292,20.2839708 Z M23.4893449,5.18275822 L3.70884393,5.18275822 C3.02765293,5.18275822 2.47256262,5.72908191 2.47256262,6.40223074 L2.47256262,6.40223074 L2.47256262,21.035901 C2.47256262,21.7090498 3.02765293,22.2553735 3.70884393,22.2553735 L3.70884393,22.2553735 L23.4893449,22.2553735 C24.1705359,22.2553735 24.7256262,21.7090498 24.7256262,21.035901 L24.7256262,21.035901 L24.7256262,18.596956 C24.7256262,18.2725763 24.8554357,17.9628303 25.0878566,17.7347889 L25.0878566,17.7347889 L29.158931,13.7190659 L25.0878566,9.70334286 C24.8554357,9.4753015 24.7256262,9.16555548 24.7256262,8.84117579 L24.7256262,8.84117579 L24.7256262,6.40223074 C24.7256262,5.72908191 24.1705359,5.18275822 23.4893449,5.18275822 L23.4893449,5.18275822 Z M22.3607813,17.8347856 L22.3607813,20.5785988 L4.1926465,20.5785988 L4.1926465,17.8347856 L22.3607813,17.8347856 Z M39.6723539,17.0381947 C38.9892456,17.0381947 38.4325929,17.5834169 38.4325929,18.2552086 C38.4325929,18.9270003 38.9892456,19.4722225 39.6723539,19.4722225 C40.3554623,19.4722225 40.912115,18.9270003 40.912115,18.2552086 C40.912115,17.5834169 40.3554623,17.0381947 39.6723539,17.0381947 Z M58.2687698,7.76454874 C56.1971291,9.54138904 53.6481804,10.6233144 50.9231856,10.8886234 C51.4872768,14.3692832 54.5668433,17.0381947 58.2687698,17.0381947 C61.9706964,17.0381947 65.0502628,14.3692832 65.6143541,10.8886234 C62.8881196,10.6233144 60.3404106,9.54017203 58.2687698,7.76454874 Z M20.9632325,12.3471593 L20.9632325,15.0909725 L8.38529299,15.0909725 L8.38529299,12.3471593 L20.9632325,12.3471593 Z M22.3607813,6.85953294 L22.3607813,9.60334611 L4.1926465,9.60334611 L4.1926465,6.85953294 L22.3607813,6.85953294 Z M58.2687698,2.43402782 C54.6238723,2.43402782 51.5889373,5.0226164 50.9591386,8.42295326 C53.3072461,8.13208694 55.4805472,7.10249317 57.1814994,5.43275009 L57.1814994,5.43275009 L57.3922588,5.22464071 C57.8571692,4.76582647 58.68285,4.76582647 59.1477604,5.22464071 L59.1477604,5.22464071 L59.3597596,5.4339671 C61.059472,7.10249317 63.2327731,8.13208694 65.5808806,8.42417027 C64.9486024,5.0226164 61.9136674,2.43402782 58.2687698,2.43402782 Z" transform="translate(.743 .372)"/>
</svg>
