<svg xmlns="http://www.w3.org/2000/svg" width="183" height="182" viewBox="0 0 183 182">
  <g fill="none" fill-rule="evenodd">
    <g fill="#335CB4" transform="translate(16.907 73.596)">
      <rect width="15.268" height="85.136" x="45.063" y=".354"/>
      <rect width="15.268" height="85.136" x="89.844" y=".354"/>
      <rect width="15.268" height="85.136" x="134.625" y=".354"/>
      <rect width="15.268" height="85.136" x=".283" y=".354"/>
    </g>
    <path fill="#335CB4" d="M39.7814208,66.6338798 L39.7814208,73.5192114 C39.7814208,75.2094465 38.4712631,76.579235 36.855402,76.579235 L11.8768384,76.579235 C10.2606223,76.579235 8.95081967,75.2090752 8.95081967,73.5192114 L8.95081967,66.6338798 L39.7814208,66.6338798 Z"/>
    <rect width="30.831" height="5.967" x="8.951" y="66.634" fill="#0039A6" fill-rule="nonzero"/>
    <path fill="#335CB4" d="M84.5355191,66.6338798 L84.5355191,73.5192114 C84.5355191,75.2094465 83.2253615,76.579235 81.6095004,76.579235 L56.6309368,76.579235 C55.0147206,76.579235 53.704918,75.2090752 53.704918,73.5192114 L53.704918,66.6338798 L84.5355191,66.6338798 Z"/>
    <rect width="30.831" height="5.967" x="53.705" y="66.634" fill="#0039A6" fill-rule="nonzero"/>
    <path fill="#335CB4" d="M129.289617,66.6338798 L129.289617,73.5192114 C129.289617,75.2094465 127.97946,76.579235 126.363599,76.579235 L101.385035,76.579235 C99.768819,76.579235 98.4590164,75.2090752 98.4590164,73.5192114 L98.4590164,66.6338798 L129.289617,66.6338798 Z"/>
    <rect width="30.831" height="5.967" x="98.459" y="66.634" fill="#0039A6" fill-rule="nonzero"/>
    <path fill="#335CB4" d="M174.043716,66.6338798 L174.043716,73.5192114 C174.043716,75.2094465 172.733558,76.579235 171.117697,76.579235 L146.139133,76.579235 C144.522917,76.579235 143.213115,75.2090752 143.213115,73.5192114 L143.213115,66.6338798 L174.043716,66.6338798 Z"/>
    <rect width="30.831" height="5.967" x="143.213" y="66.634" fill="#0039A6" fill-rule="nonzero"/>
    <path fill="#335CB4" d="M39.7814208,160.195379 L39.7814208,167.081967 L8.95081967,167.081967 L8.95081967,160.195379 C8.95081967,158.505838 10.2609622,157.136612 11.8768047,157.136612 L36.8550807,157.136612 C38.4712782,157.136612 39.7814208,158.506209 39.7814208,160.195379 Z"/>
    <rect width="30.831" height="5.967" x="8.951" y="161.115" fill="#0039A6" fill-rule="nonzero"/>
    <path fill="#335CB4" d="M84.5355191,160.195379 L84.5355191,167.081967 L53.704918,167.081967 L53.704918,160.195379 C53.704918,158.505838 55.0150606,157.136612 56.6309031,157.136612 L81.609179,157.136612 C83.2257316,157.136612 84.5355191,158.506209 84.5355191,160.195379 Z"/>
    <rect width="30.831" height="5.967" x="53.705" y="161.115" fill="#0039A6" fill-rule="nonzero"/>
    <path fill="#335CB4" d="M129.289617,160.195379 L129.289617,167.081967 L98.4590164,167.081967 L98.4590164,160.195379 C98.4590164,158.505838 99.7691589,157.136612 101.385001,157.136612 L126.363277,157.136612 C127.979475,157.136612 129.289617,158.506209 129.289617,160.195379 Z"/>
    <rect width="30.831" height="5.967" x="98.459" y="161.115" fill="#0039A6" fill-rule="nonzero"/>
    <path fill="#335CB4" d="M174.043716,160.195379 L174.043716,167.081967 L143.213115,167.081967 L143.213115,160.195379 C143.213115,158.505838 144.523257,157.136612 146.1391,157.136612 L171.117376,157.136612 C172.733573,157.136612 174.043716,158.506209 174.043716,160.195379 Z"/>
    <rect width="30.831" height="5.967" x="143.213" y="161.115" fill="#0039A6" fill-rule="nonzero"/>
    <path fill="#0039A6" fill-rule="nonzero" d="M178.9178 175.833005L4.07673505 175.833005 4.07673505 169.122038C4.07673505 167.492273 5.39488025 166.17149 7.02059266 166.17149L175.973943 166.17149C177.600012 166.17149 178.9178 167.492631 178.9178 169.122038L178.9178 175.833005zM175.973943 67.3934662L7.02059266 67.3934662C5.39452303 67.3934662 4.07673505 66.0723252 4.07673505 64.442918L4.07673505 59.8522216 178.918158 59.8522216 178.918158 64.442918C178.918158 66.0723252 177.600012 67.3934662 175.973943 67.3934662z"/>
    <path fill="#335CB4" d="M180.04911,60.6666667 L2.94542572,60.6666667 C1.31848992,60.6666667 2.84217094e-14,59.3391508 2.84217094e-14,57.7018812 L2.84217094e-14,39.0094501 C2.84217094e-14,37.8010149 0.72840403,36.713819 1.84138251,36.2608807 L90.3928671,0.216126062 C91.1012561,-0.0720420208 91.8932794,-0.0720420208 92.601311,0.216126062 L181.153153,36.2605209 C182.266131,36.7134592 182.994536,37.8010149 182.994536,39.0090904 L182.994536,57.7015214 C182.994536,59.3391508 181.675688,60.6666667 180.04911,60.6666667 Z"/>
    <path fill="#698DDB" d="M182.994536,39.0247761 L182.994536,41.7704918 L91.4972678,4.51239972 L2.84217094e-14,41.7704918 L2.84217094e-14,39.0247761 C2.84217094e-14,37.815855 0.72840403,36.7282219 1.84138251,36.2751014 L90.3928671,0.216212967 C91.1012561,-0.0720709892 91.8932794,-0.0720709892 92.601311,0.216212967 L181.153153,36.2751014 C182.266131,36.7282219 182.994536,37.8162149 182.994536,39.0247761 Z"/>
    <path fill="#0039A6" fill-rule="nonzero" d="M91.4972678,51.715847 C81.6261724,51.715847 73.5956284,43.685303 73.5956284,33.8142077 C73.5956284,23.9431123 81.6261724,15.9125683 91.4972678,15.9125683 C101.368363,15.9125683 109.398907,23.9431123 109.398907,33.8142077 C109.398907,43.685303 101.368363,51.715847 91.4972678,51.715847 Z"/>
    <circle cx="91.497" cy="33.814" r="12.929" fill="#335CB4" fill-rule="nonzero"/>
    <path fill="#0039A6" fill-rule="nonzero" d="M146.337336 31.5249677L125.389991 31.5249677C123.867139 31.5249677 122.632654 30.2740229 122.632654 28.7308654L122.632654 17.7909747 91.5935093 5.42003775C90.1762962 4.85514158 89.4792886 3.23314456 90.0367519 1.79703527 90.5942152.360925981 92.1952271-.345375062 93.6120833.219521113L126.399278 13.2873562C127.453891 13.7075926 128.147329 14.739378 128.147329 15.8876145L128.147329 25.936763 146.336979 25.936763C147.859832 25.936763 149.094318 27.1877079 149.094318 28.7308654 149.095031 30.2736612 147.860189 31.5249677 146.337336 31.5249677zM23.7899796 31.5249677L2.84299161 31.5249677C1.32013883 31.5249677.0856537768 30.2740229.0856537768 28.7308654.0856537768 27.1877079 1.32013883 25.936763 2.84299161 25.936763L21.0326418 25.936763 21.0326418 15.8872529C21.0326418 14.7386547 21.7260805 13.707231 22.7806926 13.2869945L55.5678877.219159463C56.9840301-.34646001 58.5857557.360564332 59.1432191 1.79667362 59.7006824 3.23278291 59.0036748 4.85477993 57.5864617 5.41967611L26.5473174 17.790613 26.5473174 28.7305037C26.5476743 30.2736612 25.3131893 31.5249677 23.7899796 31.5249677z" transform="translate(16.907 17.902)"/>
    <path fill="#335CB4" d="M180.049461,182 L2.94543147,182 C1.3184925,182 2.84217094e-14,180.741591 2.84217094e-14,179.189553 L2.84217094e-14,176.854163 C2.84217094e-14,175.301784 1.31884991,174.043716 2.94543147,174.043716 L180.049104,174.043716 C181.676043,174.043716 182.994536,175.302125 182.994536,176.854163 L182.994536,179.189553 C182.994536,180.741932 181.676043,182 180.049461,182 Z"/>
  </g>
</svg>
