<svg xmlns="http://www.w3.org/2000/svg" width="152" height="112" viewBox="0 0 152 112">
  <g fill="none" transform="translate(0 -23)">
    <path fill="#0039A6" d="M139.066667,135 L9.93333333,135 C4.4476888,135 0,130.522461 0,125 L0,115 L149,115 L149,125 C149,130.522461 144.552311,135 139.066667,135 Z"/>
    <path fill="#0039A6" d="M141,125 L141,115 L0,115 L0,125 C0,130.522461 4.43040707,135 9.89473684,135 L131.105263,135 C136.569593,135 141,130.522461 141,125 Z"/>
    <path fill="#335CB4" d="M36,114 L36,119.5 C36,122.538696 38.2095794,125 40.9375,125 L110.0625,125 C112.790421,125 115,122.538696 115,119.5 L115,114"/>
    <path fill="#698DDB" d="M106,119.5 L106,114 L35,114 L35,119.5 C35,122.538696 37.1912546,125 39.8965517,125 L101.103448,125 C103.808745,125 106,122.538696 106,119.5 Z"/>
    <path fill="#335CB4" d="M144,117 L6,117 L6,36.0588235 C6,33.2638729 8.20558377,31 10.9285714,31 L139.071429,31 C141.794416,31 144,33.2638729 144,36.0588235 L144,117 Z"/>
    <polygon fill="#698DDB" points="16 41 135 41 135 106 16 106"/>
    <polygon fill="#698DDB" points="14 41 126 41 126 106 14 106"/>
    <polygon fill="#99BAFD" points="25 59 89 59 89 89 25 89"/>
    <polygon fill="#FFF" points="25 59 82 59 82 89 25 89"/>
    <g transform="rotate(45 62.843 153.09)">
      <path fill="#F4CF54" d="M55.189475,21.1251126 L30,25.6 L33.8783256,0.00633006391 C34.4966656,-0.0416323119 35.1048211,0.184749986 35.5374167,0.62456484 L54.5750147,19.4521857 C55.0265242,19.8881635 55.2530063,20.5040002 55.189475,21.1251126 Z"/>
      <path fill="#EDC932" d="M55.189475,21.1251126 C55.162133,21.6326264 54.9558404,22.1867258 54.5922394,22.5426569 L22.9531908,54.1927105 C22.5919881,54.5548777 22.035148,55.1621221 21.5247634,55.1913832 L25.7,29.7 C27.7888235,29.2104613 28.8578591,28.8128302 28.9071068,28.5071068 L29.754884,25.354884 L55.189475,21.1251126 Z"/>
      <path fill="#F4CF54" d="M26,30 L21.5247634,55.1913832 C20.9079195,55.2481054 20.2982704,55.0226716 19.8622587,54.5776215 L1.02261608,35.5359764 C0.5890026,35.0996529 0.363562023,34.4946175 0.404812802,33.8774621 L26,30 Z"/>
      <path fill="#F3E594" d="M34,1.13686838e-13 L30.1687741,25.876913 L29.7323295,28.7855318 C29.6585507,29.2491263 29.2968432,29.6108853 28.8383608,29.6797455 L25.9643426,30.1215181 L0.4,34 C0.43257776,33.476274 0.651997665,32.9826137 1.01705877,32.6101864 L32.6269485,0.625076729 C32.9910515,0.249254811 33.4811532,0.0261863365 34,1.13686838e-13 L34,1.13686838e-13 Z"/>
    </g>
    <polygon fill="#BFC8E1" points="33 68 82 68 82 72 33 72"/>
    <polygon fill="#BFC8E1" points="39 78 78 78 78 82 39 82"/>
  </g>
</svg>
