<svg xmlns="http://www.w3.org/2000/svg" width="140" height="114" viewBox="0 0 140 114">
  <g fill="none" fill-rule="evenodd" transform="translate(0 1)">
    <g fill-rule="nonzero" transform="translate(22)">
      <path fill="#05BE50" d="M84.1666667,25.3601954 L20.2,25.3601954 C19.2703792,25.3601954 18.5166667,26.1171972 18.5166667,27.0508751 L18.5166667,52.4110704 C18.5166667,55.219078 22.018,57.3243969 29.2209833,58.847488 C35.3725146,60.1480433 43.5274229,60.8644689 52.1833333,60.8644689 C60.8392438,60.8644689 68.9943625,60.1480433 75.1456833,58.847488 C82.3486667,57.3243969 85.85,55.219078 85.85,52.4110704 L85.85,27.0508751 C85.85,26.1171972 85.0962875,25.3601954 84.1666667,25.3601954 Z"/>
      <path fill="#33C86F" d="M100.02556,22.1360692 L52.8922271,0.157233211 C52.4425667,-0.0524110704 51.9238896,-0.0524110704 51.4744396,0.157233211 L4.34110625,22.1360692 C3.74688958,22.4131293 3.36666667,23.0114186 3.36666667,23.6695157 C3.36666667,24.3276127 3.74688958,24.925902 4.34110625,25.2029621 L51.4744396,47.1817981 C51.6991646,47.2866203 51.9413542,47.3390313 52.1833333,47.3390313 C52.4253125,47.3390313 52.6675021,47.2866203 52.8922271,47.1817981 L100.02556,25.2029621 C100.619777,24.925902 101,24.3276127 101,23.6695157 C101,23.0114186 100.619988,22.4131293 100.02556,22.1360692 L100.02556,22.1360692 Z"/>
      <g transform="translate(0 21.979)">
        <path fill="#06A948" d="M5.05,43.957672 C4.12037917,43.957672 3.36666667,43.2006701 3.36666667,42.2669923 L3.36666667,1.69067969 C3.36666667,0.757001832 4.12037917,0 5.05,0 L50.5,0 C51.4296208,0 52.1833333,0.757001832 52.1833333,1.69067969 C52.1833333,2.62435755 51.4296208,3.38135938 50.5,3.38135938 L6.73333333,3.38135938 L6.73333333,42.2669923 C6.73333333,43.2006701 5.97983125,43.957672 5.05,43.957672 Z"/>
        <g transform="translate(0 16.907)">
          <path fill="#06A948" d="M10.0917938,25.1919727 L8.40846042,8.28517582 C8.3224,7.42081583 7.59814583,6.76271876 6.73333333,6.76271876 L3.36666667,6.76271876 C2.50185417,6.76271876 1.77781042,7.42081583 1.69175,8.28517582 L0.00841666667,25.1919727 C-0.0389270833,25.6672651 0.11615,26.140444 0.435352083,26.4946414 C0.754554167,26.8488388 1.20779167,27.0508751 1.68333333,27.0508751 L8.41666667,27.0508751 C8.89220833,27.0508751 9.34565625,26.8488388 9.66485833,26.4946414 C9.98406042,26.140444 10.1389271,25.6672651 10.0917938,25.1919727 Z"/>
          <ellipse cx="5.05" cy="5.072" fill="#05BE50" rx="5.05" ry="5.072"/>
        </g>
      </g>
      <g transform="translate(3 70)">
        <g transform="translate(0 1.652)">
          <path fill="#FDE09B" d="M79.5853132,0 C69.425486,0 59.2656587,3.30434783 45.7192225,3.30434783 C32.1727862,3.30434783 20.3196544,0 11.8531317,0 C5.30681641,0 0,5.17791304 0,11.5652174 C0,17.9525217 5.30681641,23.1304348 11.8531317,23.1304348 C22.012959,23.1304348 32.1727862,18.173913 45.7192225,18.173913 C59.2656587,18.173913 71.1187905,21.4782609 79.5853132,21.4782609 C84.6652268,21.4782609 91.4384449,17.9525217 91.4384449,11.5652174 C91.4384449,5.17791304 86.1316285,0 79.5853132,0 Z"/>
          <ellipse cx="11.853" cy="11.565" fill="#FCD069" rx="11.853" ry="11.565"/>
          <ellipse cx="11.853" cy="11.565" fill="#FBC137" rx="5.08" ry="4.957"/>
          <path fill="#FEEFCD" d="M97.0847689,11.5652174 L31.2880346,11.5652174 C30.8526436,11.5652174 30.4843499,11.8873913 30.4464622,12.3105543 C29.7581339,20.0253804 16.9330454,23.1304348 11.8531317,23.1304348 C28.7861771,23.1304348 30.4794816,19.826087 49.1058315,19.826087 C61.3886393,19.826087 69.8496587,23.0494783 79.5853132,23.0494783 C88.0518359,23.0494783 97.1762073,19.399 97.9288812,12.4747391 C97.981797,11.9883804 97.585987,11.5652174 97.0847689,11.5652174 Z"/>
          <path fill="#FDE8B4" d="M83.9991231,18.7428804 C74.2634687,18.7428804 65.8024492,15.5194891 53.5196415,15.5194891 C39.6474557,15.5194891 35.1663369,17.352163 26.7880778,18.2877065 C22.4288769,21.6765217 15.3286393,23.1304348 11.8531317,23.1304348 C28.7861771,23.1304348 30.4794816,19.826087 49.1058315,19.826087 C61.3886393,19.826087 69.8496587,23.0494783 79.5853132,23.0494783 C86.6908423,23.0494783 94.258432,20.4778696 96.9531145,15.5583152 C93.4111447,17.660913 88.6078747,18.7428804 83.9991231,18.7428804 Z"/>
        </g>
        <g transform="translate(38.734)">
          <path fill="#06A948" d="M18.8157883,21.4782609 L8.65596112,21.4782609 C7.72083369,21.4782609 6.96265659,22.2180217 6.96265659,23.1304348 L6.96265659,36.3478261 C6.96265659,36.879 7.22427214,37.3775435 7.6658013,37.6881522 C8.10754212,37.9987609 8.67522246,38.0834348 9.19146868,37.9153261 L13.7358747,34.6956522 L18.2802808,37.9151196 C18.4553261,37.971913 18.6360864,38 18.8155767,38 C19.166514,38 19.5138531,37.8934348 19.8059482,37.6881522 C20.2474773,37.37775 20.5090929,36.879 20.5090929,36.3478261 L20.5090929,23.1304348 C20.5090929,22.2180217 19.7509158,21.4782609 18.8157883,21.4782609 Z"/>
          <ellipse cx="13.736" cy="13.217" fill="#05BE50" rx="13.546" ry="13.217"/>
          <ellipse cx="13.736" cy="13.217" fill="#FDE09B" rx="6.773" ry="6.609"/>
        </g>
      </g>
    </g>
    <g transform="translate(.807 64.49)">
      <line x1="28.101" x2="23.05" y1="47.51" y2="42.268" stroke="#05BE50" stroke-linecap="round" stroke-width="1.361"/>
      <line x1="22.886" x2="28.265" y1="47.337" y2="42.441" stroke="#05BE50" stroke-linecap="round" stroke-width="1.361"/>
      <line x1="11.488" x2="5.737" y1="5.754" stroke="#05BE50" stroke-linecap="round" stroke-width="1.361"/>
      <line x1="5.196" x2="10.418" y1="5.216" stroke="#05BE50" stroke-linecap="round" stroke-width="1.361"/>
      <polygon fill="#05BE50" fill-rule="nonzero" points="0 28.964 3.773 23.41 7.621 28.964 3.758 34.517"/>
    </g>
    <g transform="translate(117.627)">
      <line x1="5.755" x2=".005" y1="5.754" stroke="#05BE50" stroke-linecap="round" stroke-width="1.361"/>
      <line x2="5.761" y1="5.754" stroke="#05BE50" stroke-linecap="round" stroke-width="1.361"/>
      <polygon fill="#05BE50" fill-rule="nonzero" points="15.771 16.171 18.96 11.477 22.212 16.171 18.948 20.865"/>
    </g>
  </g>
</svg>
