<svg xmlns="http://www.w3.org/2000/svg" width="130" height="114" viewBox="0 0 130 114">
  <g fill="none" fill-rule="evenodd">
    <g fill-rule="nonzero" transform="translate(14)">
      <polygon fill="#F2E59E" points="55.4 64.397 51.685 52.809 47.971 64.397 35.955 64.397 45.677 71.558 41.964 83.146 51.685 75.984 61.407 83.146 57.694 71.558 67.416 64.397"/>
      <path fill="#F2E59E" d="M86.5168539 76.4044944C80.3112321 76.4044944 75.2808989 81.4348276 75.2808989 87.6404494 75.2808989 93.8460713 80.3112321 98.8764045 86.5168539 98.8764045 92.7224758 98.8764045 97.752809 93.8460713 97.752809 87.6404494 97.752809 81.4348276 92.7224758 76.4044944 86.5168539 76.4044944zM26.9662921 87.0786517C26.9662921 92.9734132 22.1868964 97.752809 16.2921348 97.752809 10.3973733 97.752809 5.61797753 92.9734132 5.61797753 87.0786517 5.61797753 81.1838901 10.3973733 76.4044944 16.2921348 76.4044944 22.1868964 76.4044944 26.9662921 81.1838901 26.9662921 87.0786517z"/>
      <path fill="#E8C953" d="M68.861619 63.8999134C68.6277651 63.1821948 67.958518 62.6957789 67.2033828 62.6966292L56.1841918 62.6966292 52.7801308 52.2174277C52.5445763 51.5031107 51.8778804 51.0200963 51.1252962 51.0200963 50.3727122 51.0200963 49.7060162 51.5031107 49.4704617 52.2174277L46.0629992 62.6966292 35.0438082 62.6966292C34.2895233 62.6966292 33.6202762 63.1821948 33.3872729 63.8999134 33.1534191 64.6176319 33.4093826 65.4033807 34.0199537 65.8472776L42.9378622 72.3237524 39.5338012 82.8029538C39.2999473 83.5206724 39.5559109 84.3072715 40.166482 84.7503183 40.7770529 85.1942152 41.6036198 85.1942152 42.2133404 84.7503183L51.1235955 78.2729931 60.0372519 84.7503183C60.6469727 85.1942152 61.4743899 85.1942152 62.0849608 84.7503183 62.6946816 84.3072715 62.9506452 83.5206724 62.7176417 82.8029538L59.3093288 72.3237524 68.2238358 65.8472776C68.8361075 65.4050814 69.0937719 64.6184823 68.861619 63.8999134zM56.2403166 70.2496817C55.6297457 70.6935788 55.3746325 71.4793276 55.6084861 72.1970462L57.741233 78.7815189 52.14745 74.7133131C51.5368791 74.269416 50.710312 74.269416 50.099741 74.7133131L44.505958 78.7815189 46.6463582 72.1970462C46.8793616 71.4793276 46.6242483 70.6935788 46.0136774 70.2496817L40.4045877 66.1797753 47.3266602 66.1797753C48.0817954 66.1797753 48.750192 65.6942097 48.9831955 64.9764911L51.1235955 58.3911681 53.2639955 64.9764911C53.496999 65.6942097 54.1653956 66.1797753 54.9205308 66.1797753L61.8426033 66.1797753 56.2403166 70.2496817zM85.9550562 74.8876404C79.2217674 74.8876404 73.7640449 80.3453629 73.7640449 87.0786517 73.7640449 93.8119405 79.2217674 99.2696629 85.9550562 99.2696629 92.688345 99.2696629 98.1460674 93.8119405 98.1460674 87.0786517 98.1384141 80.3487646 92.6849433 74.8952938 85.9550562 74.8876404zM85.9550562 95.7865169C81.1461716 95.7865169 77.247191 91.8875363 77.247191 87.0786517 77.247191 82.2697671 81.1461716 78.3707865 85.9550562 78.3707865 90.7639408 78.3707865 94.6629213 82.2697671 94.6629213 87.0786517 94.6569687 91.8858354 90.7622399 95.7805642 85.9550562 95.7865169zM16.2921348 74.8876404C9.55884601 74.8876404 4.1011236 80.3453629 4.1011236 87.0786517 4.1011236 93.8119405 9.55884601 99.2696629 16.2921348 99.2696629 23.0254237 99.2696629 28.4831461 93.8119405 28.4831461 87.0786517 28.4754927 80.3487646 23.0220219 74.8952938 16.2921348 74.8876404zM16.2921348 95.7865169C11.4832503 95.7865169 7.58426966 91.8875363 7.58426966 87.0786517 7.58426966 82.2697671 11.4832503 78.3707865 16.2921348 78.3707865 21.1010194 78.3707865 25 82.2697671 25 87.0786517 24.9940473 91.8858354 21.0993185 95.7805642 16.2921348 95.7865169z"/>
      <path fill="#05BE50" d="M50.0784817 48.4153903C50.6975565 48.8805466 51.5496346 48.8805466 52.1687093 48.4153903L66.1012936 37.9659521C66.5392381 37.6377063 66.7977528 37.1215271 66.7977528 36.5730337L66.7977528 1.74157303C66.7977528.779796074 66.0179567 0 65.0561798 0L37.1910112 0C36.2292343 0 35.4494382.779796074 35.4494382 1.74157303L35.4494382 36.5730337C35.4494382 37.1215271 35.7079529 37.6377063 36.1458974 37.9659521L50.0784817 48.4153903zM84.9099423 67.5726937C85.5290171 68.03785 86.3810952 68.03785 87.00017 67.5726937L100.932754 57.1232555C101.370699 56.7950097 101.629213 56.2788305 101.629213 55.7303371L101.629213 20.8988764C101.629213 19.9370994 100.849417 19.1573034 99.8876404 19.1573034L72.0224719 19.1573034C71.060695 19.1573034 70.2808989 19.9370994 70.2808989 20.8988764L70.2808989 55.7303371C70.2808989 56.2788305 70.5394136 56.7950097 70.9773581 57.1232555L84.9099423 67.5726937zM15.247021 67.5726937C15.8660958 68.03785 16.7181739 68.03785 17.3372487 67.5726937L31.2698329 57.1232555C31.7077774 56.7950097 31.9662921 56.2788305 31.9662921 55.7303371L31.9662921 20.8988764C31.9662921 19.9370994 31.1864961 19.1573034 30.2247191 19.1573034L2.35955056 19.1573034C1.3977736 19.1573034.617977528 19.9370994.617977528 20.8988764L.617977528 55.7303371C.617977528 56.2788305.876492275 56.7950097 1.31443672 57.1232555L15.247021 67.5726937z"/>
    </g>
    <g transform="translate(0 1)">
      <g transform="translate(.807 64.49)">
        <line x1="28.101" x2="23.05" y1="47.51" y2="42.268" stroke="#05BE50" stroke-linecap="round" stroke-width="1.361"/>
        <line x1="22.886" x2="28.265" y1="47.337" y2="42.441" stroke="#05BE50" stroke-linecap="round" stroke-width="1.361"/>
        <line x1="11.488" x2="5.737" y1="5.754" stroke="#05BE50" stroke-linecap="round" stroke-width="1.361"/>
        <line x1="5.196" x2="10.418" y1="5.216" stroke="#05BE50" stroke-linecap="round" stroke-width="1.361"/>
        <polygon fill="#05BE50" fill-rule="nonzero" points="0 28.964 3.773 23.41 7.621 28.964 3.758 34.517"/>
      </g>
      <g transform="translate(107.627)">
        <line x1="5.755" x2=".005" y1="5.754" stroke="#05BE50" stroke-linecap="round" stroke-width="1.361"/>
        <line x2="5.761" y1="5.754" stroke="#05BE50" stroke-linecap="round" stroke-width="1.361"/>
        <polygon fill="#05BE50" fill-rule="nonzero" points="15.771 16.171 18.96 11.477 22.212 16.171 18.948 20.865"/>
      </g>
    </g>
  </g>
</svg>
