<svg xmlns="http://www.w3.org/2000/svg" width="94" height="100" viewBox="0 0 94 100">
  <g fill="none" fill-rule="evenodd">
    <polygon fill="#37C771" fill-rule="nonzero" points="23.008 6.03 23.008 33.455 28.121 42.405 72.878 42.405 77.851 33.312 77.851 6.03"/>
    <polygon fill="#009244" fill-rule="nonzero" points="35.509 6.03 33.805 6.03 33.805 42.402 35.509 42.402"/>
    <polygon fill="#009244" fill-rule="nonzero" points="54.028 6.03 46.449 6.03 46.449 42.402 54.028 42.402"/>
    <path fill="#00B555" fill-rule="nonzero" d="M80.3263889,6.02986111 L20.20375,6.02986111 C19.32,6.02986111 18.6024306,5.31229167 18.6024306,4.42854167 L18.6024306,1.60131944 C18.6024306,0.717638889 19.32,0 20.20375,0 L80.3263889,0 C81.2104167,0 81.9277778,0.717638889 81.9277778,1.60131944 L81.9277778,4.42854167 C81.9277778,5.31229167 81.2104167,6.02986111 80.3263889,6.02986111 L80.3263889,6.02986111 Z"/>
    <polygon fill="#009244" fill-rule="nonzero" points="66.908 6.03 65.203 6.03 65.203 42.402 66.908 42.402"/>
    <path fill="#E8C953" fill-rule="nonzero" d="M50.4295833,99.7006944 C68.9298611,99.7006944 83.9277778,84.7027778 83.9277778,66.2020833 C83.9277778,47.7018056 68.9298611,32.7041667 50.4295833,32.7041667 C31.9290278,32.7041667 16.9313194,47.7018056 16.9313194,66.2020833 C16.9313194,84.7027778 31.9290278,99.7006944 50.4295833,99.7006944 Z"/>
    <path fill="#F1E49E" fill-rule="nonzero" d="M50.17375,92.5013889 C64.5993056,92.5013889 76.2930556,80.8069444 76.2930556,66.3819444 C76.2930556,51.9564583 64.5993056,40.2623611 50.17375,40.2623611 C35.7483333,40.2623611 24.0542361,51.9564583 24.0542361,66.3819444 C24.0542361,80.8069444 35.7483333,92.5013889 50.17375,92.5013889 Z"/>
    <polygon fill="#F1E49E" fill-rule="nonzero" points="21.416 82.96 27.37 79.126 28.915 81.561 23.008 85.445"/>
    <polygon fill="#F1E49E" fill-rule="nonzero" points="24.054 86.857 29.742 82.654 30.376 83.422 24.682 87.641"/>
    <polygon fill="#F1E49E" fill-rule="nonzero" points="69.499 49.522 76.247 44.744 77.792 47.176 71.088 52.003"/>
    <polygon fill="#F1E49E" fill-rule="nonzero" points="71.652 53.256 78.619 48.269 79.253 49.036 72.28 54.04"/>
    <path stroke="#E7BB4D" d="M39.6288889,78.2090278 C39.6288889,78.2090278 25.7983333,73.0930556 35.5093056,56.6111111"/>
    <path fill="#EFCF69" fill-rule="nonzero" d="M31.9578472 76.2222222C31.9578472 76.2222222 33.0608333 74.41875 35.8415278 76.0798611 35.8415278 76.0798611 34.3498611 77.2888889 32.0541667 76.2923611M30.3799306 73.6840278C30.3799306 73.6840278 31.8317361 72.1458333 34.2104861 74.3451389 34.2104861 74.3451389 32.5028472 75.21875 30.4596528 73.7708333M29.2435417 71.4715278C29.2435417 71.4715278 30.6953472 69.9333333 33.0740972 72.1326389 33.0740972 72.1326389 31.3664583 73.00625 29.3232639 71.5583333M28.4961111 69.1395833C28.4961111 69.1395833 30.0908333 67.7541667 32.2402778 70.1791667 32.2402778 70.1791667 30.4529167 70.8798611 28.5659028 69.2354167M28.8182639 65.8798611C28.8182639 65.8798611 30.8281944 65.2291667 31.8547917 68.3055556 31.8547917 68.3055556 29.9378472 68.2493056 28.8415278 65.9965278M29.2435417 63.0961806C29.2435417 63.0961806 31.31 62.6576389 32.0143056 65.8201389 32.0143056 65.8201389 30.1139583 65.5680556 29.256875 63.2125M30.7253472 60.0097917C30.7253472 60.0097917 32.8117361 60.3452778 32.3333333 63.5479167 32.3333333 63.5479167 30.6489583 62.6277083 30.6988194 60.1260417M31.7152778 57.3852778C31.7152778 57.3852778 33.7684028 57.8802778 33.0408333 61.0397222 33.0408333 61.0397222 31.4361806 59.9899306 31.67875 57.4981944M33.2269444 55.1659722C33.2269444 55.1659722 35.2004167 55.9267361 34.0641667 58.9632639 34.0641667 58.9632639 32.6090278 57.7140972 33.1771528 55.2755556M35.3232639 52.7507639C35.3232639 52.7507639 37.1239583 53.8570139 35.4595139 56.6344444 35.4595139 56.6344444 34.2535417 55.1427778 35.2535417 52.8470833M39.3399306 57.1095139C39.3399306 57.1095139 38.0209722 58.7606944 35.4694444 56.7606944 35.4694444 56.7606944 37.1006944 55.7507639 39.2535417 57.0264583M38.1007639 59.2557639C38.1007639 59.2557639 36.781875 60.9069444 34.2303472 58.9069444 34.2303472 58.9069444 35.8615972 57.8969444 38.0144444 59.1727083M37.4030556 61.4019444C37.4030556 61.4019444 36.0840972 63.0530556 33.5326389 61.0530556 33.5326389 61.0530556 35.1638889 60.043125 37.3166667 61.3188889M36.3531944 63.8368056C36.3531944 63.8368056 35.0342361 65.4881944 32.4827083 63.4881944 32.4827083 63.4881944 34.1139583 62.4782639 36.2668056 63.7541667M35.8315972 65.5048611C35.8315972 65.5048611 34.8615278 67.3819444 31.9678472 65.9236111 31.9678472 65.9236111 33.3697917 64.6145833 35.7319444 65.4416667M35.795 67.5847222C35.795 67.5847222 34.9910417 69.5381944 31.9810417 68.3354167 31.9810417 68.3354167 33.2634722 66.9097222 35.6886806 67.53125M36.3233333 69.3722222C36.3233333 69.3722222 35.5193056 71.3256944 32.509375 70.1229167 32.509375 70.1229167 33.7917361 68.6972222 36.2170139 69.31875"/>
    <path fill="#EFCF69" fill-rule="nonzero" d="M36.761875 71.375C36.761875 71.375 35.9579167 73.3284722 32.9479861 72.1256944 32.9479861 72.1256944 34.2303472 70.7006944 36.655625 71.3222222M38.1339583 72.3583333C38.1339583 72.3583333 37.7685417 74.4416667 34.5725 73.9131944 34.5725 73.9131944 35.5160417 72.2423611 38.0210417 72.3284722M39.4030556 74.0333333C39.4030556 74.0333333 39.0376389 76.1159722 35.8415972 75.5875 35.8415972 75.5875 36.7851389 73.9166667 39.2901389 74.0027778M41.1206944 75.2256944C41.1206944 75.2256944 40.7552778 77.3090278 37.5592361 76.7805556 37.5592361 76.7805556 38.5027778 75.1090278 41.0077778 75.1958333M33.6720833 78.2152778C33.6720833 78.2152778 34.3 76.1958333 37.4029861 77.1256944 37.4029861 77.1256944 36.2534722 78.6604167 33.7817361 78.2590278"/>
    <path stroke="#E7BB4D" d="M61.2368056,78.4916667 C61.2368056,78.4916667 75.0673611,73.3756944 65.35625,56.89375"/>
    <g fill="#EFCF69" fill-rule="nonzero" transform="translate(40.278 52.778)">
      <path d="M28.6298611 23.7270833C28.6298611 23.7270833 27.5270833 21.9229167 24.7465278 23.5840278 24.7465278 23.5840278 26.2381944 24.79375 28.5340278 23.7965278M30.2083333 21.1888889C30.2083333 21.1888889 28.75625 19.6506944 26.3777778 21.85 26.3777778 21.85 28.0854167 22.7236111 30.1284722 21.275M31.3444444 18.9763889C31.3444444 18.9763889 29.8923611 17.4381944 27.5138889 19.6375 27.5138889 19.6375 29.2215278 20.5111111 31.2645833 19.0625M32.0916667 16.6472222C32.0916667 16.6472222 30.4972222 15.2618056 28.3479167 17.6868056 28.3479167 17.6868056 30.1347222 18.3881944 32.0222222 16.74375M31.7694444 13.3847222C31.7694444 13.3847222 29.7597222 12.7340278 28.7333333 15.8104167 28.7333333 15.8104167 30.65 15.7534722 31.7465278 13.5013889M31.3444444 10.6006944C31.3444444 10.6006944 29.2777778 10.1624306 28.5736111 13.325 28.5736111 13.325 30.4736111 13.0729167 31.33125 10.7173611M29.8625 7.51458333C29.8625 7.51458333 27.7763889 7.85013889 28.2548611 11.0527778 28.2548611 11.0527778 29.9388889 10.1325694 29.8888889 7.63090278M28.8722222 4.88986111C28.8722222 4.88986111 26.8194444 5.38486111 27.5472222 8.54430556 27.5472222 8.54430556 29.1513889 7.49451389 28.9090278 5.00277778M27.3611111 2.67402778C27.3611111 2.67402778 25.3875 3.43479167 26.5236111 6.47131944 26.5236111 6.47131944 27.9791667 5.22215278 27.4104167 2.78368056M25.2645833.255347222C25.2645833.255347222 23.4638889 1.36166667 25.1284722 4.13902778 25.1284722 4.13902778 26.3340278 2.64736111 25.3340278.351666667M21.2479167 4.61423611C21.2479167 4.61423611 22.5673611 6.26534722 25.11875 4.26541667 25.11875 4.26541667 23.4875 3.25541667 21.3347222 4.53118056M22.4875 6.76027778C22.4875 6.76027778 23.80625 8.41145833 26.3576389 6.41145833 26.3576389 6.41145833 24.7263889 5.40145833 22.5736111 6.67722222M23.1847222 8.90652778C23.1847222 8.90652778 24.5034722 10.5576389 27.0555556 8.55770833 27.0555556 8.55770833 25.4243056 7.54770833 23.2715278 8.82347222M24.2347222 11.3416667C24.2347222 11.3416667 25.5534722 12.9930556 28.1048611 10.9930556 28.1048611 10.9930556 26.4736111 9.98291667 24.3208333 11.2583333M24.75625 13.0097222C24.75625 13.0097222 25.7263889 14.8868056 28.6201389 13.4277778 28.6201389 13.4277778 27.2180556 12.1194444 24.85625 12.9465278M24.7930556 15.0888889C24.7930556 15.0888889 25.5965278 17.0423611 28.6069444 15.8402778 28.6069444 15.8402778 27.3243056 14.4145833 24.8993056 15.0361111M24.2645833 16.8798611C24.2645833 16.8798611 25.06875 18.8333333 28.0784722 17.6305556 28.0784722 17.6305556 26.7958333 16.2055556 24.3708333 16.8263889"/>
      <path d="M23.8263889 18.8798611C23.8263889 18.8798611 24.6298611 20.8333333 27.6402778 19.6305556 27.6402778 19.6305556 26.3576389 18.2055556 23.9326389 18.8263889M22.4541667 19.8631944C22.4541667 19.8631944 22.8194444 21.9465278 26.0152778 21.4180556 26.0152778 21.4180556 25.0722222 19.7472222 22.5673611 19.8333333M21.1847222 21.5375C21.1847222 21.5375 21.55 23.6208333 24.7465278 23.0923611 24.7465278 23.0923611 23.8027778 21.4215278 21.2979167 21.5076389M19.4673611 22.7305556C19.4673611 22.7305556 19.8326389 24.8131944 23.0284722 24.2854167 23.0284722 24.2854167 22.0854167 22.6138889 19.5805556 22.7006944M26.9159722 25.7201389C26.9159722 25.7201389 26.2881944 23.7006944 23.1847222 24.6305556 23.1847222 24.6305556 24.3347222 26.1652778 26.80625 25.7638889M.417569444 10.0990972L.417569444 17.425C.417569444 18.1923611.82625 18.9027778 1.49069444 19.2854167L8.90263889 23.5743056C9.55708333 23.9527778 10.364375 23.9597222 11.0255556 23.5909722L18.3610417 19.5041667C19.0423611 19.1256944 19.4638889 18.4048611 19.4638889 17.6243056L19.4638889 10.1888194C19.4638889 9.44465278 19.0819444 8.75694444 18.4507639 8.36493056L11.248125 3.87652778C10.5703472 3.45465278 9.71652778 3.44131944 9.02881944 3.84333333L1.48402778 8.23534722C.82625 8.62736111.417569444 9.335.417569444 10.0990972L.417569444 10.0990972z"/>
    </g>
    <path fill="#E7BB4D" fill-rule="nonzero" d="M50.2335417,42.8936806 C62.0638889,42.8936806 72.0902778,50.2125694 75.5361111,60.3288194 C72.8548611,48.8305556 62.4694444,40.2590972 50.0707639,40.2590972 C36.489375,40.2590972 25.3265972,50.5414583 24.0542361,63.6875 C26.2402778,51.8770139 37.1305556,42.8936806 50.2335417,42.8936806 Z"/>
    <g transform="translate(.298 40.097)">
      <line x1="16.123" x2="12.333" y1="58.907" y2="54.977" stroke="#FFF" stroke-linecap="round" stroke-width="1.361"/>
      <line x1="12.21" x2="16.245" y1="58.777" y2="55.106" stroke="#FFF" stroke-linecap="round" stroke-width="1.361"/>
      <line x1="92.182" x2="88.391" y1="19.902" y2="15.972" stroke="#FFF" stroke-linecap="round" stroke-width="1.361"/>
      <line x1="88.269" x2="92.305" y1="19.773" y2="16.102" stroke="#FFF" stroke-linecap="round" stroke-width="1.361"/>
      <line x1="10.165" x2="6.253" y1="28.659" y2="24.748" stroke="#FFF" stroke-linecap="round" stroke-width="1.361"/>
      <line x1="6.25" x2="10.168" y1="28.659" y2="24.748" stroke="#FFF" stroke-linecap="round" stroke-width="1.361"/>
      <polygon fill="#FFF" fill-rule="nonzero" points=".402 44.027 3.232 39.863 6.12 44.027 3.222 48.19"/>
      <polygon fill="#FFF" fill-rule="nonzero" points="88.267 4.214 86.041 .459 83.761 4.214 86.041 7.969"/>
    </g>
  </g>
</svg>
