<svg xmlns="http://www.w3.org/2000/svg" xmlns:xlink="http://www.w3.org/1999/xlink" width="93" height="92" viewBox="0 0 93 92">
  <defs>
    <polygon id="note-a" points="0 0 101.829 0 101.829 100 0 100"/>
  </defs>
  <g fill="none" fill-rule="evenodd" transform="translate(-4 -4)">
    <mask id="note-b" fill="#fff">
      <use xlink:href="#note-a"/>
    </mask>
    <g mask="url(#note-b)">
      <g transform="translate(4.268 5.488)">
        <g transform="translate(4.975)">
          <path fill="#FFF" fill-rule="nonzero" d="M58.5011272,-1.38642485e-13 L14.6364733,-1.38642485e-13 C11.9389782,-1.38642485e-13 9.75609756,2.18407334 9.75609756,3.32034829 L9.75609756,73.6330568 C9.75609756,77.8838158 11.9422755,80.0677148 14.6364733,80.0677148 L69.1797487,80.0677148 C71.8772437,80.0677148 74.0602488,77.8838158 74.0602488,75.1919174 L74.0602488,15.5734661 L58.5011272,-1.38642485e-13 Z"/>
          <line x1="23.124" x2="60.921" y1="28.49" y2="28.49" stroke="#55ACED" stroke-linecap="round" stroke-width="3.138"/>
          <line x1="23.124" x2="60.921" y1="40.771" y2="40.771" stroke="#55ACED" stroke-linecap="round" stroke-width="3.138"/>
          <line x1="23.124" x2="60.921" y1="51.577" y2="51.577" stroke="#55ACED" stroke-linecap="round" stroke-width="3.138"/>
          <path fill="#E8C953" fill-rule="nonzero" d="M28.3166801,16.7474053 L31.0121844,18.1064902 C31.4601079,18.3321017 31.9833697,17.9670394 31.8975177,17.4890469 L31.3821568,14.6100106 C31.347816,14.4198221 31.4138847,14.2258361 31.5579046,14.0914902 L33.7381102,12.0528939 C34.1001817,11.7144145 33.9006691,11.1236162 33.3998657,11.0538908 L30.3872067,10.6342934 C30.1890005,10.6064032 30.0172343,10.4872475 29.9274007,10.3135565 L28.5796486,7.69437182 C28.3563089,7.25952192 27.7088728,7.25952192 27.4855331,7.69437182 L26.137781,10.3135565 C26.0492539,10.4859401 25.8774876,10.6064032 25.677975,10.6342934 L22.665316,11.0538908 C22.1645126,11.1236162 21.965,11.7144145 22.3270715,12.0528939 L24.5072771,14.0914902 C24.651297,14.2258361 24.7173657,14.4198221 24.6830249,14.6100106 L24.167664,17.4890469 C24.081812,17.9670394 24.6050115,18.3321017 25.0529973,18.1064902 L27.7485016,16.7474053 C27.9268622,16.6586921 28.1396259,16.6586921 28.3166801,16.7474053 L28.3166801,16.7474053 Z"/>
          <path fill="#37C771" fill-rule="nonzero" d="M18.1848364,75.4122995 L26.2351421,73.1661457 L13.2265096,26.4752809 C13.141093,26.1694852 12.8256802,25.9919345 12.5200968,26.0774104 L5.57709542,28.0141578 C5.27151203,28.0996336 5.09408454,28.4152656 5.17956328,28.7210612 L18.1848364,75.4122995 Z"/>
          <path fill="#314A9F" fill-rule="nonzero" d="M26.2351421 73.1667682L18.1848364 75.4122995 23.471765 81.9820505C23.9810914 82.6133143 24.9963847 82.3306775 25.1048195 81.5282129L26.2351421 73.1667682zM2.04484509 18.4391799L10.5912883 16.0553184C10.9363139 15.9599441 11.2911688 16.1605291 11.3864148 16.5057943L12.8749518 21.8457013C12.9701978 22.1909666 12.769752 22.5460681 12.4247886 22.6413802L3.87834542 25.0253039C3.53331987 25.1206161 3.1784649 24.9200933 3.08315672 24.5748281L1.59468194 19.234921C1.50267098 18.8896558 1.70311676 18.5345543 2.04484509 18.4391799L2.04484509 18.4391799z"/>
          <polygon fill="#314A9F" fill-rule="nonzero" points="6.657 27.71 11.443 26.375 10.525 23.081 5.74 24.415"/>
          <path fill="#314A9F" fill-rule="nonzero" d="M8.69209253,51.2710015 L9.91112887,50.9322731 C10.1739729,50.859933 10.3284443,50.5837706 10.2561544,50.3206817 L1.99887072,20.6718245 L0.779834377,21.0104907 C0.250786915,21.1584704 -0.0580314766,21.7076202 0.0897832894,22.2336734 L8.08092576,50.9224368 C8.15651285,51.1920624 8.42924852,51.3465789 8.69209253,51.2710015 L8.69209253,51.2710015 Z"/>
          <path fill="#3C4B9B" fill-rule="nonzero" d="M58.3555521,0 L58.3524415,11.6088303 C58.3524415,13.6071477 60.0265557,15.2275784 62.0907367,15.2275784 L74.0602488,15.2275784 L58.3555521,0 Z"/>
        </g>
        <g transform="translate(.062)">
          <line x1="19.797" x2="16.338" y1="89.024" y2="85.435" stroke="#FFF" stroke-linecap="round" stroke-width="1.361"/>
          <line x1="16.226" x2="19.909" y1="88.906" y2="85.553" stroke="#FFF" stroke-linecap="round" stroke-width="1.361"/>
          <line x1="8.42" x2="4.482" y1="60.43" y2="56.489" stroke="#FFF" stroke-linecap="round" stroke-width="1.361"/>
          <line x1="4.111" x2="7.687" y1="60.062" y2="56.489" stroke="#FFF" stroke-linecap="round" stroke-width="1.361"/>
          <line x1="81.068" x2="77.13" y1="3.941" stroke="#FFF" stroke-linecap="round" stroke-width="1.361"/>
          <line x1="77.127" x2="81.072" y1="3.941" stroke="#FFF" stroke-linecap="round" stroke-width="1.361"/>
          <polygon fill="#FFF" fill-rule="nonzero" points=".553 76.324 3.137 72.521 5.772 76.324 3.127 80.127"/>
          <polygon fill="#FFF" fill-rule="nonzero" points="87.927 11.074 90.111 7.859 92.338 11.074 90.103 14.288"/>
        </g>
      </g>
    </g>
  </g>
</svg>
