<svg xmlns="http://www.w3.org/2000/svg" width="125" height="110" viewBox="0 0 125 110">
  <g fill="none" fill-rule="evenodd" transform="translate(0 1)">
    <g transform="translate(6 2)">
      <polygon fill="#E8C953" fill-rule="nonzero" points="63 88 43 88 46.409 80.774 49.364 74 56.636 74 59.591 80.774"/>
      <path fill="#05BE50" fill-rule="nonzero" d="M75.7711122,88 L31.4337375,88 C28.9951606,88 27,90.0117546 27,92.4706134 L27,107 L79.9831416,107 L79.9831416,92.4706134 C80.2048497,90.0117546 78.2096891,88 75.7711122,88 Z"/>
      <path fill="#E8C953" fill-rule="nonzero" d="M68.2073383 84L38.9279398 84C37.3175589 84 36 84.4235273 36 84.9411818L36 88 70.9888671 88 70.9888671 84.9411818C71.1352781 84.4235273 69.8177192 84 68.2073383 84zM0 12.2448153L0 21.3728693C0 43.6363636 13.8085418 62.7828835 33.1849203 70.7978693 39.4209741 73.4695312 46.325245 74.8052557 53.452255 74.8052557 60.5792649 74.8052557 67.4835359 73.4695312 73.7195896 70.7978693 93.0959681 62.7830966 106.90451 43.6363636 106.90451 21.3730824L106.90451 12.2448153 0 12.2448153zM97.9955876 21.3728693C97.9955876 32.059304 94.2094502 41.8553267 87.7506574 49.6474432 79.5101653 59.4432528 67.2605837 65.899858 53.452255 65.899858 39.6439263 65.899858 27.3943446 59.6661222 19.1538526 49.6474432 12.9177988 42.0777699 8.90892231 32.059304 8.90892231 21.3728693L8.90892231 21.1502131 97.7728486 21.1502131 97.7728486 21.3728693 97.9955876 21.3728693zM88.1961355 0L18.7081614 0C17.1492012 0 16.035506 1.33572443 16.035506 2.67166193 16.035506 4.23004261 17.148988 5.56598011 18.7081614 5.56598011L88.1961355 5.56598011C89.7550956 5.56598011 90.8687908 4.23025568 90.8687908 2.89431818 90.8687908 1.33572443 89.7550956 0 88.1961355 0z"/>
      <path fill="#F2E59E" fill-rule="nonzero" d="M88,5 L88,29.1790962 C88,51.5671878 74.2883856,71.9403727 53.5,80 C32.7116144,71.7164704 19,51.5671878 19,28.9551938 L19,5 L88,5 Z"/>
      <path fill="#E8C953" d="M71.5600195,32.8798171 C71.3261656,32.1620985 70.6569185,31.6756826 69.9017833,31.6765329 L58.8825923,31.6765329 L55.4785313,21.1973315 C55.2429768,20.4830144 54.5762809,20 53.8236967,20 C53.0711127,20 52.4044167,20.4830144 52.1688622,21.1973315 L48.7613997,31.6765329 L37.7422087,31.6765329 C36.9879239,31.6765329 36.3186767,32.1620985 36.0856734,32.8798171 C35.8518196,33.5975357 36.1077831,34.3832844 36.7183543,34.8271814 L45.6362627,41.3036561 L42.2322017,51.7828575 C41.9983478,52.5005761 42.2543114,53.2871752 42.8648825,53.730222 C43.4754534,54.174119 44.3020203,54.174119 44.9117409,53.730222 L53.821996,47.2528968 L62.7356524,53.730222 C63.3453732,54.174119 64.1727904,54.174119 64.7833613,53.730222 C65.3930821,53.2871752 65.6490457,52.5005761 65.4160422,51.7828575 L62.0077293,41.3036561 L70.9222363,34.8271814 C71.534508,34.3849851 71.7921725,33.598386 71.5600195,32.8798171 Z"/>
    </g>
    <g transform="translate(.807 56.49)">
      <line x1="23.101" x2="18.05" y1="47.51" y2="42.268" stroke="#05BE50" stroke-linecap="round" stroke-width="1.361"/>
      <line x1="17.886" x2="23.265" y1="47.337" y2="42.441" stroke="#05BE50" stroke-linecap="round" stroke-width="1.361"/>
      <line x1="6.488" x2=".737" y1="5.754" stroke="#05BE50" stroke-linecap="round" stroke-width="1.361"/>
      <line x1=".196" x2="5.418" y1="5.216" stroke="#05BE50" stroke-linecap="round" stroke-width="1.361"/>
      <polygon fill="#05BE50" fill-rule="nonzero" points="2 26.964 5.773 21.41 9.621 26.964 5.758 32.517"/>
    </g>
    <g transform="translate(102.627)">
      <line x1="5.755" x2=".005" y1="5.754" stroke="#05BE50" stroke-linecap="round" stroke-width="1.361"/>
      <line x2="5.761" y1="5.754" stroke="#05BE50" stroke-linecap="round" stroke-width="1.361"/>
      <polygon fill="#05BE50" fill-rule="nonzero" points="15.771 16.171 18.96 11.477 22.212 16.171 18.948 20.865"/>
    </g>
  </g>
</svg>
